<?xml version="1.0" encoding="UTF-8" standalone="no"?>
<svg width="74px" height="12px" viewBox="0 0 74 12" version="1.1" xmlns="http://www.w3.org/2000/svg" xmlns:xlink="http://www.w3.org/1999/xlink" xmlns:sketch="http://www.bohemiancoding.com/sketch/ns">
    <!-- Generator: Sketch 3.3.3 (12072) - http://www.bohemiancoding.com/sketch -->
    <title>Add Stream</title>
    <desc>Created with Sketch.</desc>
    <defs></defs>
    <g stroke="none" stroke-width="1" fill="none" fill-rule="evenodd" sketch:type="MSPage">
        <g sketch:type="MSArtboardGroup" transform="translate(0.000000, -4.000000)" fill="#D8D8D8">
            <path d="M6.62402344,12.4365234 L2.45410156,12.4365234 L1.51074219,15 L0.13671875,15 L3.98535156,5.046875 L5.140625,5.046875 L8.92773438,15 L7.55371094,15 L6.62402344,12.4365234 Z M2.87109375,11.3085938 L6.22070312,11.3085938 L4.58007812,6.77636719 L4.5390625,6.77636719 L2.87109375,11.3085938 Z M9.734375,11.4384766 C9.734375,10.2490175 9.98844147,9.28971719 10.496582,8.56054688 C11.0047226,7.83137656 11.7167923,7.46679688 12.6328125,7.46679688 C13.0657574,7.46679688 13.4497054,7.54654868 13.784668,7.70605469 C14.1196306,7.86556069 14.4055978,8.09798024 14.6425781,8.40332031 L14.6425781,4.3359375 L15.9892578,4.3359375 L15.9892578,15 L14.8886719,15 L14.7314453,14.0908203 C14.4899076,14.4371762 14.1936867,14.6992179 13.8427734,14.8769531 C13.4918602,15.0546884 13.0839867,15.1435547 12.6191406,15.1435547 C11.7167924,15.1435547 11.0104192,14.8165723 10.5,14.1625977 C9.98958078,13.508623 9.734375,12.6484428 9.734375,11.5820312 L9.734375,11.4384766 Z M11.0810547,11.5820312 C11.0810547,12.3294308 11.2337224,12.9275694 11.5390625,13.3764648 C11.8444026,13.8253603 12.3183562,14.0498047 12.9609375,14.0498047 C13.3619812,14.0498047 13.6992174,13.9586598 13.9726562,13.7763672 C14.2460951,13.5940746 14.4694002,13.3388688 14.6425781,13.0107422 L14.6425781,9.55859375 C14.4694002,9.25325368 14.2449558,9.01058033 13.9692383,8.83056641 C13.6935208,8.65055249 13.3619811,8.56054688 12.9746094,8.56054688 C12.3274707,8.56054688 11.8500992,8.82714577 11.5424805,9.36035156 C11.2348617,9.89355735 11.0810547,10.5862588 11.0810547,11.4384766 L11.0810547,11.5820312 Z M17.6914062,11.4384766 C17.6914062,10.2490175 17.9454727,9.28971719 18.4536133,8.56054688 C18.9617538,7.83137656 19.6738235,7.46679688 20.5898438,7.46679688 C21.0227886,7.46679688 21.4067366,7.54654868 21.7416992,7.70605469 C22.0766618,7.86556069 22.362629,8.09798024 22.5996094,8.40332031 L22.5996094,4.3359375 L23.9462891,4.3359375 L23.9462891,15 L22.8457031,15 L22.6884766,14.0908203 C22.4469389,14.4371762 22.1507179,14.6992179 21.7998047,14.8769531 C21.4488915,15.0546884 21.0410179,15.1435547 20.5761719,15.1435547 C19.6738236,15.1435547 18.9674505,14.8165723 18.4570312,14.1625977 C17.946612,13.508623 17.6914062,12.6484428 17.6914062,11.5820312 L17.6914062,11.4384766 Z M19.0380859,11.5820312 C19.0380859,12.3294308 19.1907537,12.9275694 19.4960938,13.3764648 C19.8014338,13.8253603 20.2753874,14.0498047 20.9179688,14.0498047 C21.3190124,14.0498047 21.6562486,13.9586598 21.9296875,13.7763672 C22.2031264,13.5940746 22.4264314,13.3388688 22.5996094,13.0107422 L22.5996094,9.55859375 C22.4264314,9.25325368 22.2019871,9.01058033 21.9262695,8.83056641 C21.650552,8.65055249 21.3190124,8.56054688 20.9316406,8.56054688 C20.284502,8.56054688 19.8071304,8.82714577 19.4995117,9.36035156 C19.191893,9.89355735 19.0380859,10.5862588 19.0380859,11.4384766 L19.0380859,11.5820312 Z M35.109375,12.4912109 C35.109375,12.0354795 34.9384783,11.6538101 34.5966797,11.3461914 C34.2548811,11.0385727 33.6487674,10.779949 32.7783203,10.5703125 C31.7255807,10.3196602 30.9041371,9.95052327 30.3139648,9.46289062 C29.7237926,8.97525798 29.4287109,8.36230838 29.4287109,7.62402344 C29.4287109,6.84927998 29.7465789,6.20215104 30.3823242,5.68261719 C31.0180696,5.16308334 31.8417918,4.90332031 32.8535156,4.90332031 C33.9427138,4.90332031 34.8097298,5.20181993 35.4545898,5.79882812 C36.0994498,6.39583632 36.4104819,7.08853772 36.3876953,7.87695312 L36.3740234,7.91796875 L35.0888672,7.91796875 C35.0888672,7.3346325 34.8963235,6.86295753 34.5112305,6.50292969 C34.1261374,6.14290185 33.5735713,5.96289062 32.8535156,5.96289062 C32.1835904,5.96289062 31.6697609,6.11441906 31.3120117,6.41748047 C30.9542625,6.72054188 30.7753906,7.11588298 30.7753906,7.60351562 C30.7753906,8.0364605 30.9690736,8.39762225 31.3564453,8.68701172 C31.743817,8.97640119 32.372717,9.23046766 33.2431641,9.44921875 C34.2913464,9.70898567 35.0888645,10.0917943 35.6357422,10.5976562 C36.1826199,11.1035182 36.4560547,11.7301395 36.4560547,12.4775391 C36.4560547,13.2796264 36.127933,13.9244767 35.4716797,14.4121094 C34.8154264,14.899742 33.9586641,15.1435547 32.9013672,15.1435547 C31.9078726,15.1435547 31.0294635,14.8746772 30.2661133,14.3369141 C29.5027631,13.799151 29.1324869,13.0791061 29.1552734,12.1767578 L29.1689453,12.1357422 L30.4541016,12.1357422 C30.4541016,12.7737662 30.6887997,13.2591129 31.1582031,13.5917969 C31.6276065,13.9244808 32.2086554,14.0908203 32.9013672,14.0908203 C33.580407,14.0908203 34.1181621,13.9472671 34.5146484,13.6601562 C34.9111348,13.3730454 35.109375,12.9834009 35.109375,12.4912109 L35.109375,12.4912109 Z M39.9423828,5.81933594 L39.9423828,7.60351562 L41.34375,7.60351562 L41.34375,8.6015625 L39.9423828,8.6015625 L39.9423828,13.0927734 C39.9423828,13.4391293 40.0141594,13.682942 40.1577148,13.8242188 C40.3012702,13.9654955 40.4915353,14.0361328 40.7285156,14.0361328 C40.80599,14.0361328 40.8914383,14.0270183 40.9848633,14.0087891 C41.0782882,13.9905598 41.161458,13.9677736 41.234375,13.9404297 L41.4121094,14.8632812 C41.3118485,14.9453129 41.1648773,15.0125323 40.9711914,15.0649414 C40.7775055,15.1173505 40.5826833,15.1435547 40.3867188,15.1435547 C39.839841,15.1435547 39.404624,14.9783545 39.0810547,14.6479492 C38.7574854,14.3175439 38.5957031,13.7991572 38.5957031,13.0927734 L38.5957031,8.6015625 L37.4199219,8.6015625 L37.4199219,7.60351562 L38.5957031,7.60351562 L38.5957031,5.81933594 L39.9423828,5.81933594 Z M46.5048828,8.79296875 L45.8144531,8.75195312 C45.4589826,8.75195312 45.1593437,8.83626218 44.9155273,9.00488281 C44.671711,9.17350345 44.4837246,9.41048024 44.3515625,9.71582031 L44.3515625,15 L43.0048828,15 L43.0048828,7.60351562 L44.2080078,7.60351562 L44.3378906,8.68359375 C44.5475271,8.30077934 44.8061508,8.00227972 45.1137695,7.78808594 C45.4213883,7.57389216 45.7757141,7.46679688 46.1767578,7.46679688 C46.2770187,7.46679688 46.3727209,7.47477206 46.4638672,7.49072266 C46.5550135,7.50667326 46.630208,7.52376293 46.6894531,7.54199219 L46.5048828,8.79296875 Z M50.7431641,15.1435547 C49.713211,15.1435547 48.894046,14.8006219 48.2856445,14.1147461 C47.6772431,13.4288703 47.3730469,12.539068 47.3730469,11.4453125 L47.3730469,11.1445312 C47.3730469,10.0917916 47.6863575,9.21566105 48.3129883,8.51611328 C48.939619,7.81656551 49.6813108,7.46679688 50.5380859,7.46679688 C51.5361378,7.46679688 52.290362,7.76757512 52.8007813,8.36914062 C53.3112005,8.97070613 53.5664063,9.77278145 53.5664063,10.7753906 L53.5664063,11.6162109 L48.7675781,11.6162109 L48.7470703,11.6503906 C48.7607423,12.3613317 48.9407535,12.9457985 49.2871094,13.4038086 C49.6334653,13.8618187 50.118812,14.0908203 50.7431641,14.0908203 C51.1988955,14.0908203 51.5987939,14.0258796 51.9428711,13.8959961 C52.2869483,13.7661126 52.5843086,13.5872407 52.8349609,13.359375 L53.3613281,14.234375 C53.0970039,14.4941419 52.7483746,14.7106111 52.3154297,14.8837891 C51.8824848,15.056967 51.3584015,15.1435547 50.7431641,15.1435547 L50.7431641,15.1435547 Z M50.5380859,8.52636719 C50.0869118,8.52636719 49.7018245,8.71663221 49.3828125,9.09716797 C49.0638005,9.47770373 48.8678389,9.95507525 48.7949219,10.5292969 L48.8085938,10.5634766 L52.2197266,10.5634766 L52.2197266,10.3857422 C52.2197266,9.85709371 52.0784519,9.41504084 51.7958984,9.05957031 C51.5133449,8.70409979 51.0940783,8.52636719 50.5380859,8.52636719 L50.5380859,8.52636719 Z M59.6230469,15 C59.5774737,14.7766916 59.5421551,14.5795907 59.5170898,14.4086914 C59.4920246,14.2377921 59.4772136,14.0657561 59.4726562,13.8925781 C59.222004,14.2480487 58.8950215,14.545409 58.4916992,14.784668 C58.0883769,15.023927 57.6542992,15.1435547 57.1894531,15.1435547 C56.419267,15.1435547 55.8325215,14.9464538 55.4291992,14.5522461 C55.0258769,14.1580384 54.8242188,13.6145868 54.8242188,12.921875 C54.8242188,12.2154913 55.1101859,11.6629252 55.6821289,11.2641602 C56.2540719,10.8653951 57.029943,10.6660156 58.0097656,10.6660156 L59.4726562,10.6660156 L59.4726562,9.93457031 C59.4726562,9.50162544 59.3404961,9.15869267 59.0761719,8.90576172 C58.8118476,8.65283077 58.4381535,8.52636719 57.9550781,8.52636719 C57.5221333,8.52636719 57.170086,8.63688041 56.8989258,8.85791016 C56.6277656,9.07893991 56.4921875,9.34439949 56.4921875,9.65429688 L55.2070312,9.65429688 L55.1933594,9.61328125 C55.1660155,9.07551814 55.420082,8.58333557 55.9555664,8.13671875 C56.4910509,7.69010193 57.1826129,7.46679688 58.0302734,7.46679688 C58.8688193,7.46679688 59.5432917,7.67984813 60.0537109,8.10595703 C60.5641302,8.53206593 60.8193359,9.14615484 60.8193359,9.94824219 L60.8193359,13.5097656 C60.8193359,13.7740899 60.8330077,14.0292956 60.8603516,14.2753906 C60.8876954,14.5214856 60.9378252,14.7630196 61.0107422,15 L59.6230469,15 Z M57.3876953,14.015625 C57.875328,14.015625 58.3151022,13.8903007 58.7070312,13.6396484 C59.0989603,13.3889961 59.3541661,13.1018896 59.4726562,12.7783203 L59.4726562,11.5751953 L57.9619141,11.5751953 C57.4195936,11.5751953 56.985516,11.7119127 56.659668,11.9853516 C56.33382,12.2587904 56.1708984,12.5800763 56.1708984,12.9492188 C56.1708984,13.2773454 56.2734365,13.5371084 56.4785156,13.7285156 C56.6835948,13.9199228 56.9866516,14.015625 57.3876953,14.015625 L57.3876953,14.015625 Z M63.9775391,7.60351562 L64.0732422,8.57421875 C64.3147799,8.22330554 64.6212547,7.95101008 64.9926758,7.75732422 C65.3640969,7.56363835 65.795896,7.46679688 66.2880859,7.46679688 C66.7802759,7.46679688 67.2029605,7.58072803 67.5561523,7.80859375 C67.9093442,8.03645947 68.1748038,8.37825293 68.3525391,8.83398438 C68.5849621,8.41471145 68.8925762,8.08203248 69.2753906,7.8359375 C69.658205,7.58984252 70.1048152,7.46679688 70.6152344,7.46679688 C71.3671913,7.46679688 71.9619119,7.72542059 72.3994141,8.24267578 C72.8369163,8.75993097 73.0556641,9.53808074 73.0556641,10.5771484 L73.0556641,15 L71.7089844,15 L71.7089844,10.5634766 C71.7089844,9.83430625 71.5836601,9.31819813 71.3330078,9.01513672 C71.0823555,8.71207531 70.7086613,8.56054688 70.2119141,8.56054688 C69.7516253,8.56054688 69.3790704,8.72005049 69.0942383,9.0390625 C68.8094061,9.35807451 68.6419273,9.76139079 68.5917969,10.2490234 L68.5917969,10.3037109 L68.5917969,15 L67.2382812,15 L67.2382812,10.5634766 C67.2382812,9.87076477 67.109539,9.36377114 66.8520508,9.04248047 C66.5945625,8.7211898 66.2242863,8.56054688 65.7412109,8.56054688 C65.3310526,8.56054688 64.9938164,8.64485593 64.7294922,8.81347656 C64.4651679,8.9820972 64.2623705,9.21907399 64.1210938,9.52441406 L64.1210938,15 L62.7744141,15 L62.7744141,7.60351562 L63.9775391,7.60351562 Z" id="Add-Stream" sketch:type="MSShapeGroup"></path>
        </g>
    </g>
</svg>
