<?xml version="1.0" encoding="UTF-8" standalone="no"?>
<svg width="44px" height="44px" viewBox="0 0 44 44" version="1.1" xmlns="http://www.w3.org/2000/svg" xmlns:xlink="http://www.w3.org/1999/xlink" xmlns:sketch="http://www.bohemiancoding.com/sketch/ns">
    <!-- Generator: Sketch 3.3.3 (12072) - http://www.bohemiancoding.com/sketch -->
    <title>Free Text Copy 2</title>
    <desc>Created with Sketch.</desc>
    <defs></defs>
    <g id="Page-1" stroke="none" stroke-width="1" fill="none" fill-rule="evenodd" sketch:type="MSPage">
        <g id="Free-Text-Copy-2" sketch:type="MSArtboardGroup" fill="#FFFFFF">
            <g id="Group" sketch:type="MSLayerGroup" transform="translate(1.000000, 1.000000)">
                <path d="M4.73454545,20.6525455 L7.24118182,18.1459091 C6.82690909,20.2821818 6.92236364,22.4986364 7.51990909,24.6062727 C5.45045455,27.2503636 5.62990909,31.0933636 8.06209091,33.5293636 C10.6966364,36.162 14.9768182,36.162 17.6113636,33.5293636 L25.5684545,25.5722727 C28.2010909,22.9396364 28.2010909,18.6556364 25.5684545,16.0268182 C24.3829091,14.8393636 22.8613636,14.1921818 21.3016364,14.0738182 L25.1694545,10.2079091 C26.5268182,10.7653636 27.7982727,11.592 28.8979091,12.6973636 C33.369,17.1646364 33.369,24.4363636 28.8979091,28.9036364 L20.9408182,36.8645455 C16.4735455,41.3356364 9.20181818,41.3356364 4.73263636,36.8645455 C0.267272727,32.3953636 0.267272727,25.1255455 4.73454545,20.6525455 L4.73454545,20.6525455 Z" id="Shape" sketch:type="MSShapeGroup"></path>
                <path d="M34.0696364,16.9928182 C36.1429091,14.343 35.9672727,10.5038182 33.5331818,8.064 C30.9005455,5.43327273 26.6165455,5.43327273 23.9839091,8.06781818 L16.0268182,16.0268182 C13.3922727,18.6556364 13.3922727,22.9396364 16.0268182,25.5722727 C17.2123636,26.7578182 18.7358182,27.4069091 20.2917273,27.5195455 L16.4239091,31.3930909 C15.0684545,30.8299091 13.7950909,30.0013636 12.6954545,28.9017273 C8.22627273,24.4344545 8.22627273,17.1627273 12.6954545,12.6954545 L20.6525455,4.73836364 C25.1217273,0.265363636 32.3972727,0.265363636 36.8645455,4.73454545 C41.3356364,9.20754545 41.3356364,16.4754545 36.8645455,20.9465455 L34.356,23.4550909 C34.7702727,21.3111818 34.6748182,19.0966364 34.0696364,16.9928182 L34.0696364,16.9928182 Z" id="Shape" sketch:type="MSShapeGroup"></path>
            </g>
        </g>
    </g>
</svg>