<?xml version="1.0" encoding="utf-8"?>
<!-- Generator: Adobe Illustrator 16.0.0, SVG Export Plug-In . SVG Version: 6.00 Build 0)  -->
<!DOCTYPE svg PUBLIC "-//W3C//DTD SVG 1.1//EN" "http://www.w3.org/Graphics/SVG/1.1/DTD/svg11.dtd">
<svg version="1.1" id="Layer_1" xmlns="http://www.w3.org/2000/svg" xmlns:xlink="http://www.w3.org/1999/xlink" x="0px" y="0px"
	 width="60px" height="60px" viewBox="0 0 60 60" enable-background="new 0 0 60 60" xml:space="preserve">
<g display="none">
	<path display="inline" fill="#F6F7F8" d="M30,59.969C13.476,59.969,0.032,46.523,0.032,30C0.032,13.476,13.476,0.031,30,0.031
		c16.523,0,29.968,13.444,29.968,29.969C59.969,46.523,46.523,59.969,30,59.969z M30,3.687C15.491,3.687,3.687,15.49,3.687,30
		S15.491,56.313,30,56.313C44.51,56.313,56.312,44.51,56.312,30S44.51,3.687,30,3.687z"/>
	<g display="inline">
		<g>
			<path fill="#F6F7F8" d="M28.246,31.201c-0.638-0.854-0.844-1.421-0.057-2.367c1.51-1.812,2.829-3.781,4.223-5.689
				c1.773-2.431,3.545-4.863,5.527-7.589c-3.561,0-6.775-0.025-9.988,0.036c-0.354,0.007-0.78,0.449-1.034,0.792
				c-3.121,4.207-6.202,8.445-9.334,12.645c-0.567,0.761-0.507,1.282,0.05,2.025"/>
			<path fill-rule="evenodd" clip-rule="evenodd" fill="#F6F7F8" d="M17.633,31.054c-0.558-0.743-0.618-1.265-0.05-2.025
				c3.132-4.199,6.213-8.438,9.334-12.645c0.254-0.343,0.68-0.785,1.034-0.792c3.213-0.062,6.428-0.036,9.988-0.036
				c-1.982,2.726-3.754,5.158-5.527,7.589c-1.395,1.908-2.713,3.877-4.223,5.689c-0.787,0.946-0.581,1.513,0.057,2.367"/>
		</g>
		<path fill="#F6F7F8" d="M17.633,28.946c-0.558,0.743-0.618,1.264-0.05,2.025c3.132,4.2,6.213,8.438,9.334,12.644
			c0.254,0.343,0.68,0.786,1.034,0.793c3.213,0.062,6.428,0.036,9.988,0.036c-1.982-2.726-3.754-5.158-5.527-7.59
			c-1.395-1.907-2.713-3.877-4.223-5.688c-0.787-0.947-0.581-1.514,0.057-2.367"/>
	</g>
</g>
<g>
	<path fill="#F6F7F8" d="M30,60C13.458,60,0,46.541,0,30C0,13.458,13.458,0,30,0s30,13.458,30,30C60,46.541,46.542,60,30,60z
		 M30,3.659C15.475,3.659,3.659,15.475,3.659,30c0,14.524,11.816,26.341,26.341,26.341c14.524,0,26.341-11.816,26.341-26.341
		C56.341,15.475,44.524,3.659,30,3.659z"/>
	<g>
		<g>
			<path fill="#F6F7F8" d="M42.379,31.054c0.559-0.743,0.621-1.265,0.053-2.026c-3.137-4.204-6.22-8.446-9.345-12.658
				c-0.254-0.342-0.681-0.785-1.034-0.793c-3.217-0.062-6.434-0.035-10.001-0.035c1.988,2.729,3.758,5.163,5.534,7.596
				c1.395,1.911,2.717,3.882,4.227,5.696c0.79,0.948,0.581,1.515-0.056,2.368"/>
			<path fill-rule="evenodd" clip-rule="evenodd" fill="#F6F7F8" d="M42.379,31.054c0.559-0.743,0.621-1.265,0.053-2.026
				c-3.137-4.204-6.22-8.446-9.345-12.658c-0.254-0.342-0.681-0.785-1.034-0.793c-3.217-0.062-6.434-0.035-10.001-0.035
				c1.988,2.729,3.758,5.163,5.534,7.596c1.395,1.911,2.717,3.882,4.227,5.696c0.79,0.948,0.581,1.515-0.056,2.368"/>
		</g>
		<path fill="#F6F7F8" d="M31.757,28.799c0.637,0.854,0.846,1.42,0.056,2.368c-1.51,1.813-2.833,3.786-4.227,5.696
			c-1.776,2.433-3.546,4.867-5.534,7.597c3.568,0,6.785,0.025,10.001-0.037c0.354-0.006,0.78-0.449,1.034-0.793
			c3.125-4.211,6.208-8.453,9.345-12.657c0.568-0.762,0.506-1.284-0.053-2.027"/>
	</g>
</g>
</svg>
