<?xml version="1.0" encoding="utf-8"?>
<!-- Generator: Adobe Illustrator 16.0.0, SVG Export Plug-In . SVG Version: 6.00 Build 0)  -->
<!DOCTYPE svg PUBLIC "-//W3C//DTD SVG 1.1//EN" "http://www.w3.org/Graphics/SVG/1.1/DTD/svg11.dtd">
<svg version="1.1" id="Layer_1" xmlns="http://www.w3.org/2000/svg" xmlns:xlink="http://www.w3.org/1999/xlink" x="0px" y="0px"
	 width="35px" height="35px" viewBox="0 0 35 35" enable-background="new 0 0 35 35" xml:space="preserve">
<g>
	<path fill="#272727" d="M35,17.5C35,27.149,27.148,35,17.5,35C7.851,35,0,27.149,0,17.5S7.851,0,17.5,0C27.148,0,35,7.851,35,17.5z
		 M2.135,17.5c0,8.473,6.893,15.365,15.365,15.365S32.865,25.973,32.865,17.5S25.973,2.135,17.5,2.135S2.135,9.027,2.135,17.5z"/>
	<g>
		<g>
			<path fill="#272727" d="M18.115,10.278c-0.435-0.325-0.738-0.361-1.183-0.03c-2.452,1.83-4.927,3.629-7.384,5.451
				c-0.199,0.148-0.458,0.396-0.463,0.604c-0.036,1.876-0.021,3.753-0.021,5.834c1.592-1.16,3.012-2.192,4.431-3.229
				c1.115-0.813,2.266-1.585,3.323-2.465c0.553-0.461,0.883-0.34,1.382,0.031"/>
			<path fill-rule="evenodd" clip-rule="evenodd" fill="#272727" d="M18.115,10.278c-0.435-0.325-0.738-0.361-1.183-0.03
				c-2.452,1.83-4.927,3.629-7.384,5.451c-0.199,0.148-0.458,0.396-0.463,0.604c-0.036,1.876-0.021,3.753-0.021,5.834
				c1.592-1.16,3.012-2.192,4.431-3.229c1.115-0.813,2.266-1.585,3.323-2.465c0.553-0.461,0.883-0.34,1.382,0.031"/>
		</g>
		<path fill="#272727" d="M16.799,16.475c0.498-0.371,0.828-0.492,1.382-0.031c1.058,0.88,2.208,1.651,3.323,2.465
			c1.418,1.036,2.838,2.068,4.432,3.229c0-2.081,0.014-3.958-0.023-5.834c-0.002-0.207-0.262-0.455-0.461-0.604
			c-2.457-1.822-4.932-3.621-7.384-5.451c-0.444-0.331-0.749-0.295-1.182,0.03"/>
	</g>
</g>
</svg>
