<?xml version="1.0" encoding="utf-8"?>
<!-- Generator: Adobe Illustrator 16.0.0, SVG Export Plug-In . SVG Version: 6.00 Build 0)  -->
<!DOCTYPE svg PUBLIC "-//W3C//DTD SVG 1.1//EN" "http://www.w3.org/Graphics/SVG/1.1/DTD/svg11.dtd">
<svg version="1.1" id="Layer_1" xmlns="http://www.w3.org/2000/svg" xmlns:xlink="http://www.w3.org/1999/xlink" x="0px" y="0px"
	 width="60px" height="60px" viewBox="0 0 60 60" enable-background="new 0 0 60 60" xml:space="preserve">
<g>
	<path fill="#F6F7F8" d="M30.001,60C13.458,60,0,46.541,0,30C0,13.458,13.458,0,30.001,0C46.541,0,60,13.458,60,30
		C60,46.541,46.541,60,30.001,60z M30.001,3.659C15.476,3.659,3.659,15.475,3.659,30c0,14.525,11.816,26.341,26.342,26.341
		c14.524,0,26.34-11.816,26.34-26.341C56.341,15.475,44.525,3.659,30.001,3.659z"/>
	<g>
		<g>
			<path fill="#F6F7F8" d="M28.244,31.203c-0.639-0.856-0.845-1.423-0.057-2.37c1.511-1.814,2.831-3.785,4.228-5.695
				c1.775-2.433,3.549-4.869,5.533-7.597c-3.564,0-6.782-0.025-9.999,0.036c-0.355,0.007-0.781,0.45-1.035,0.793
				c-3.125,4.211-6.208,8.454-9.344,12.658c-0.568,0.762-0.508,1.284,0.05,2.027"/>
			<path fill-rule="evenodd" clip-rule="evenodd" fill="#F6F7F8" d="M17.62,31.055c-0.558-0.744-0.618-1.266-0.05-2.027
				c3.136-4.204,6.219-8.446,9.344-12.658c0.254-0.343,0.68-0.786,1.035-0.793c3.217-0.062,6.435-0.036,9.999-0.036
				c-1.984,2.729-3.758,5.164-5.533,7.597c-1.396,1.91-2.717,3.881-4.228,5.695c-0.788,0.947-0.582,1.514,0.057,2.37"/>
		</g>
		<path fill="#F6F7F8" d="M17.62,28.945c-0.558,0.744-0.618,1.265-0.05,2.027c3.136,4.205,6.219,8.446,9.344,12.657
			c0.254,0.343,0.68,0.787,1.035,0.794c3.217,0.062,6.435,0.036,9.999,0.036c-1.984-2.729-3.758-5.164-5.533-7.598
			c-1.396-1.909-2.717-3.882-4.228-5.694c-0.788-0.949-0.582-1.516,0.057-2.37"/>
	</g>
</g>
<g display="none">
	<path display="inline" fill="#F6F7F8" d="M30,60C13.458,60,0,46.541,0,30C0,13.458,13.458,0,30,0s30,13.458,30,30
		C60,46.541,46.542,60,30,60z M30,3.659C15.475,3.659,3.659,15.475,3.659,30c0,14.524,11.816,26.341,26.341,26.341
		c14.524,0,26.341-11.816,26.341-26.341C56.341,15.475,44.524,3.659,30,3.659z"/>
	<g display="inline">
		<g>
			<path fill="#F6F7F8" d="M42.379,31.054c0.559-0.743,0.621-1.265,0.053-2.026c-3.137-4.204-6.22-8.446-9.345-12.658
				c-0.254-0.342-0.681-0.785-1.034-0.793c-3.217-0.062-6.434-0.035-10.001-0.035c1.988,2.729,3.758,5.163,5.534,7.596
				c1.395,1.911,2.717,3.882,4.227,5.696c0.79,0.948,0.581,1.515-0.056,2.368"/>
			<path fill-rule="evenodd" clip-rule="evenodd" fill="#F6F7F8" d="M42.379,31.054c0.559-0.743,0.621-1.265,0.053-2.026
				c-3.137-4.204-6.22-8.446-9.345-12.658c-0.254-0.342-0.681-0.785-1.034-0.793c-3.217-0.062-6.434-0.035-10.001-0.035
				c1.988,2.729,3.758,5.163,5.534,7.596c1.395,1.911,2.717,3.882,4.227,5.696c0.79,0.948,0.581,1.515-0.056,2.368"/>
		</g>
		<path fill="#F6F7F8" d="M31.757,28.799c0.637,0.854,0.846,1.42,0.056,2.368c-1.51,1.813-2.833,3.786-4.227,5.696
			c-1.776,2.433-3.546,4.867-5.534,7.597c3.568,0,6.785,0.025,10.001-0.037c0.354-0.006,0.78-0.449,1.034-0.793
			c3.125-4.211,6.208-8.453,9.345-12.657c0.568-0.762,0.506-1.284-0.053-2.027"/>
	</g>
</g>
</svg>
