<?xml version="1.0" encoding="utf-8"?>
<!-- Generator: Adobe Illustrator 16.0.0, SVG Export Plug-In . SVG Version: 6.00 Build 0)  -->
<!DOCTYPE svg PUBLIC "-//W3C//DTD SVG 1.1//EN" "http://www.w3.org/Graphics/SVG/1.1/DTD/svg11.dtd">
<svg version="1.1" id="Layer_1" xmlns="http://www.w3.org/2000/svg" xmlns:xlink="http://www.w3.org/1999/xlink" x="0px" y="0px"
	 width="35px" height="35px" viewBox="0 0 35 35" enable-background="new 0 0 35 35" xml:space="preserve">
<g>
	<path fill="#272727" d="M0,17.5C0,7.851,7.852,0,17.5,0C27.149,0,35,7.851,35,17.5S27.149,35,17.5,35C7.852,35,0,27.149,0,17.5z
		 M32.865,17.5c0-8.473-6.893-15.365-15.365-15.365S2.135,9.027,2.135,17.5S9.027,32.865,17.5,32.865S32.865,25.973,32.865,17.5z"/>
	<g>
		<g>
			<path fill="#272727" d="M16.885,24.722c0.434,0.325,0.738,0.361,1.183,0.03c2.452-1.83,4.927-3.629,7.384-5.451
				c0.199-0.148,0.458-0.396,0.463-0.604c0.036-1.876,0.021-3.753,0.021-5.834c-1.592,1.16-3.012,2.192-4.431,3.228
				c-1.115,0.813-2.266,1.585-3.323,2.465c-0.553,0.461-0.883,0.34-1.382-0.031"/>
			<path fill-rule="evenodd" clip-rule="evenodd" fill="#272727" d="M16.885,24.722c0.434,0.325,0.738,0.361,1.183,0.03
				c2.452-1.83,4.927-3.629,7.384-5.451c0.199-0.148,0.458-0.396,0.463-0.604c0.036-1.876,0.021-3.753,0.021-5.834
				c-1.592,1.16-3.012,2.192-4.431,3.228c-1.115,0.813-2.266,1.585-3.323,2.465c-0.553,0.461-0.883,0.34-1.382-0.031"/>
		</g>
		<path fill="#272727" d="M18.201,18.525c-0.499,0.371-0.829,0.492-1.382,0.031c-1.058-0.88-2.208-1.652-3.323-2.465
			c-1.418-1.036-2.838-2.068-4.432-3.228c0,2.081-0.014,3.958,0.023,5.834c0.002,0.207,0.262,0.455,0.461,0.604
			c2.457,1.822,4.932,3.621,7.384,5.451c0.444,0.331,0.749,0.295,1.182-0.03"/>
	</g>
</g>
</svg>
