<?xml version="1.0" encoding="utf-8"?>
<!-- Generator: Adobe Illustrator 16.0.0, SVG Export Plug-In . SVG Version: 6.00 Build 0)  -->
<!DOCTYPE svg PUBLIC "-//W3C//DTD SVG 1.1//EN" "http://www.w3.org/Graphics/SVG/1.1/DTD/svg11.dtd">
<svg version="1.1" xmlns="http://www.w3.org/2000/svg" xmlns:xlink="http://www.w3.org/1999/xlink" x="0px" y="0px"
	 width="43.791px" height="43.791px" viewBox="0 0 43.791 43.791" enable-background="new 0 0 43.791 43.791" xml:space="preserve">
<g id="ADD" display="none">
	<g display="inline">
		<circle fill="#1D1D1D" cx="21.896" cy="21.896" r="21.895"/>
		<path fill="#F4F4F4" d="M30.92,19.307h-6.435v-6.435c0-0.523-0.425-0.948-0.947-0.948h-3.286c-0.522,0-0.947,0.425-0.947,0.948
			v6.435h-6.434c-0.523,0-0.948,0.423-0.948,0.947v3.284c0,0.523,0.425,0.947,0.948,0.947h6.434v6.434
			c0,0.523,0.425,0.947,0.947,0.947h3.286c0.522,0,0.947-0.424,0.947-0.947v-6.434h6.435c0.523,0,0.947-0.424,0.947-0.947v-3.284
			C31.868,19.73,31.444,19.307,30.92,19.307z"/>
	</g>
</g>
<g id="PARTI" display="none">
	<circle display="inline" fill="#1D1D1D" cx="21.895" cy="21.895" r="21.896"/>
	<g display="inline">
		<path fill="#F4F4F4" d="M32.976,21.206H17.962c-0.276,0-0.5,0.224-0.5,0.5v0.252c0,0.276,0.224,0.5,0.5,0.5h15.014
			c0.276,0,0.5-0.224,0.5-0.5v-0.252C33.476,21.43,33.252,21.206,32.976,21.206z"/>
		<path fill="#F4F4F4" d="M12.948,19.706c-1.174,0-2.125,0.952-2.125,2.126c0,1.175,0.951,2.126,2.125,2.126
			c1.176,0,2.127-0.951,2.127-2.126C15.075,20.658,14.124,19.706,12.948,19.706z M12.948,23.304c-0.814,0-1.473-0.658-1.473-1.472
			c0-0.812,0.658-1.472,1.473-1.472s1.473,0.659,1.473,1.472C14.42,22.646,13.762,23.304,12.948,23.304z"/>
		<path fill="#F4F4F4" d="M32.976,14.878H17.962c-0.276,0-0.5,0.224-0.5,0.5v0.252c0,0.276,0.224,0.5,0.5,0.5h15.014
			c0.276,0,0.5-0.224,0.5-0.5v-0.252C33.476,15.102,33.252,14.878,32.976,14.878z"/>
		<path fill="#F4F4F4" d="M12.948,13.378c-1.174,0-2.125,0.952-2.125,2.126c0,1.175,0.951,2.126,2.125,2.126
			c1.176,0,2.127-0.951,2.127-2.126C15.075,14.331,14.124,13.378,12.948,13.378z M12.948,16.977c-0.814,0-1.473-0.659-1.473-1.473
			c0-0.812,0.658-1.472,1.473-1.472s1.473,0.659,1.473,1.472C14.42,16.318,13.762,16.977,12.948,16.977z"/>
		<circle fill="#F4F4F4" cx="12.941" cy="28.286" r="2.126"/>
		<path fill="#F4F4F4" d="M32.976,27.66H17.962c-0.276,0-0.5,0.224-0.5,0.5v0.252c0,0.276,0.224,0.5,0.5,0.5h15.014
			c0.276,0,0.5-0.224,0.5-0.5V28.16C33.476,27.883,33.252,27.66,32.976,27.66z"/>
	</g>
</g>
<g id="TEXT" display="none">
	<circle display="inline" fill="#1D1D1D" cx="21.896" cy="21.895" r="21.896"/>
	<path display="inline" fill="#F4F4F4" d="M29.392,13.773c-0.003-0.136-0.114-0.244-0.25-0.244H14.658
		c-0.136,0-0.246,0.108-0.25,0.244l-0.129,5.272c-0.001,0.067,0.024,0.133,0.071,0.181c0.047,0.048,0.111,0.075,0.179,0.075h1.426
		c0.131,0,0.239-0.101,0.249-0.23l0.117-1.503c0.068-0.785,0.295-1.341,0.674-1.654c0.387-0.319,1.039-0.481,1.938-0.481
		c0.618,0,1.053,0.106,1.259,0.308c0.142,0.139,0.31,0.482,0.31,1.322v9.666c0,0.832-0.166,1.18-0.306,1.324
		c-0.198,0.209-0.584,0.314-1.146,0.314h-1.197c-0.138,0-0.25,0.111-0.25,0.25v1.395c0,0.137,0.112,0.25,0.25,0.25h8.082
		c0.138,0,0.25-0.113,0.25-0.25v-1.395c0-0.139-0.112-0.25-0.25-0.25h-1.027c-0.834,0-1.176-0.164-1.314-0.299
		c-0.14-0.137-0.305-0.48-0.305-1.34l0.029-9.628c0-0.886,0.163-1.233,0.301-1.369c0.139-0.137,0.468-0.299,1.25-0.299
		c0.897,0,1.55,0.162,1.938,0.481c0.38,0.313,0.605,0.87,0.672,1.652l0.119,1.505c0.01,0.13,0.118,0.23,0.249,0.23h1.414
		c0.067,0,0.132-0.027,0.179-0.075c0.047-0.048,0.072-0.113,0.071-0.181L29.392,13.773z"/>
</g>
<g id="SOUND" display="none">
	<circle display="inline" fill="#1D1D1D" cx="21.895" cy="21.895" r="21.895"/>
	<path display="inline" fill="#F4F4F4" d="M30.989,30.51c-0.008-0.126-0.015-0.251-0.015-0.376l-0.001-3.441
		c0-4.209-0.002-8.418,0.011-12.628c0.003-0.624-0.252-0.989-0.825-1.184c-1.846-0.625-3.685-1.265-5.522-1.906l-2.357-0.82
		c-0.715-0.248-1.431-0.493-2.163-0.745l-1.291-0.444c-0.053-0.019-0.108-0.027-0.163-0.027c-0.104,0-0.206,0.032-0.292,0.094
		c-0.132,0.095-0.209,0.248-0.208,0.411l0.082,8.228l0.059,5.867c-0.855-0.526-1.851-0.811-2.865-0.811
		c-0.968,0-1.911,0.259-2.727,0.747c-1.2,0.717-1.919,1.893-1.922,3.146c-0.003,1.255,0.68,2.388,1.874,3.108
		c0.899,0.543,1.835,0.819,2.783,0.819c0.889,0,1.785-0.243,2.662-0.723c1.37-0.749,2.058-1.926,2.047-3.499
		c-0.02-3.222-0.017-6.446-0.015-9.669l0.001-2.741l1.655,0.578c2.464,0.86,4.928,1.72,7.395,2.572
		c0.019,0.006,0.032,0.012,0.043,0.017c0.002,0.016,0.003,0.038,0.003,0.068c-0.011,2.347-0.01,4.696-0.009,7.044l0.001,2.112v1.616
		c-0.871-0.554-1.88-0.852-2.923-0.852c-1.127,0-2.218,0.342-3.07,0.963c-0.981,0.712-1.561,1.744-1.59,2.83
		c-0.03,1.098,0.476,2.126,1.424,2.896c0.864,0.702,2.023,1.089,3.265,1.089c1.207,0,2.341-0.37,3.19-1.042
		c0.905-0.716,1.4-1.603,1.473-2.635C31.012,30.944,31,30.723,30.989,30.51z M15.607,23.243c-0.125-0.005-0.25-0.007-0.374-0.001
		c0.068-0.003,0.136-0.014,0.204-0.014C15.494,23.228,15.55,23.241,15.607,23.243z M17.888,23.878
		c-0.077-0.044-0.159-0.075-0.238-0.115C17.729,23.803,17.811,23.834,17.888,23.878z M17.16,23.543
		c-0.098-0.036-0.197-0.062-0.297-0.092C16.962,23.481,17.062,23.507,17.16,23.543z M16.395,23.331
		c-0.107-0.021-0.215-0.035-0.323-0.049C16.181,23.295,16.288,23.31,16.395,23.331z M13.602,23.59
		c-0.218,0.089-0.431,0.191-0.635,0.313C13.171,23.782,13.384,23.679,13.602,23.59z M14.958,23.259
		c-0.144,0.014-0.286,0.037-0.429,0.063C14.672,23.296,14.814,23.273,14.958,23.259z M14.269,23.375
		c-0.152,0.037-0.302,0.087-0.45,0.14C13.967,23.462,14.117,23.413,14.269,23.375z M13.536,29.625
		c0.076,0.034,0.153,0.057,0.229,0.086C13.688,29.682,13.612,29.66,13.536,29.625z M14.156,29.857
		c0.095,0.028,0.19,0.043,0.286,0.065C14.347,29.9,14.251,29.885,14.156,29.857z M14.781,29.997
		c0.102,0.016,0.205,0.019,0.307,0.026C14.986,30.015,14.883,30.012,14.781,29.997z M15.409,30.046
		c0.129,0.001,0.259-0.011,0.389-0.021c-0.118,0.01-0.236,0.024-0.354,0.024C15.433,30.049,15.421,30.046,15.409,30.046z
		 M17.254,29.679c0.205-0.083,0.409-0.18,0.612-0.291C17.663,29.5,17.459,29.596,17.254,29.679z M16.023,30.009
		c0.135-0.018,0.271-0.049,0.406-0.079C16.294,29.96,16.159,29.992,16.023,30.009z M16.639,29.887
		c0.145-0.039,0.289-0.093,0.433-0.146C16.928,29.794,16.784,29.848,16.639,29.887z M28.953,28.343
		c-0.092-0.058-0.188-0.096-0.282-0.146C28.764,28.248,28.861,28.285,28.953,28.343z M28.125,27.922
		c-0.115-0.045-0.233-0.071-0.349-0.107C27.892,27.851,28.009,27.877,28.125,27.922z M27.267,27.672
		c-0.125-0.024-0.249-0.032-0.373-0.047C27.019,27.64,27.142,27.648,27.267,27.672z M26.404,27.582
		c-0.152-0.003-0.303,0.008-0.453,0.019c0.118-0.009,0.234-0.027,0.354-0.027C26.338,27.573,26.372,27.581,26.404,27.582z
		 M24.158,28.064c-0.223,0.109-0.435,0.234-0.629,0.376C23.723,28.298,23.935,28.173,24.158,28.064z M25.62,27.625
		c-0.158,0.021-0.312,0.059-0.465,0.096C25.309,27.684,25.46,27.647,25.62,27.625z M24.862,27.79
		c-0.166,0.05-0.323,0.117-0.479,0.184C24.54,27.907,24.696,27.839,24.862,27.79z M24.027,33.798
		c0.088,0.046,0.185,0.076,0.275,0.117C24.211,33.875,24.115,33.844,24.027,33.798z M24.746,34.102
		c0.112,0.037,0.231,0.056,0.349,0.084C24.977,34.158,24.859,34.139,24.746,34.102z M25.515,34.286
		c0.126,0.02,0.254,0.021,0.382,0.032C25.769,34.307,25.641,34.305,25.515,34.286z M26.31,34.349
		c0.163,0.001,0.325-0.019,0.487-0.032c-0.154,0.014-0.309,0.034-0.464,0.034C26.326,34.351,26.318,34.349,26.31,34.349z
		 M28.573,33.828c0.228-0.117,0.442-0.254,0.642-0.411C29.015,33.574,28.8,33.71,28.573,33.828z M27.096,34.294
		c0.165-0.024,0.325-0.069,0.486-0.11C27.421,34.225,27.261,34.27,27.096,34.294z M27.858,34.121
		c0.166-0.053,0.322-0.126,0.479-0.195C28.18,33.995,28.024,34.068,27.858,34.121z"/>
</g>
<g id="GIF" display="none">
	<circle display="inline" fill="#1D1D1D" cx="21.895" cy="21.896" r="21.895"/>
	<g display="inline">
		<path fill="#F4F4F4" d="M17.403,15.78h-6.74c-0.276,0-0.5,0.224-0.5,0.5v1.747H8.417c-0.276,0-0.5,0.224-0.5,0.5v6.738
			c0,0.276,0.224,0.5,0.5,0.5h1.746v1.748c0,0.276,0.224,0.5,0.5,0.5h6.74c0.276,0,0.5-0.224,0.5-0.5v-6.74
			c0-0.276-0.224-0.5-0.5-0.5H12.91c-0.276,0-0.5,0.224-0.5,0.5v2.246c0,0.276,0.224,0.5,0.5,0.5h1.747v1.246h-3.494v-5.738h6.24
			c0.276,0,0.5-0.224,0.5-0.5V16.28C17.903,16.003,17.679,15.78,17.403,15.78z"/>
		<path fill="#F4F4F4" d="M35.374,15.78h-6.738c-0.276,0-0.5,0.224-0.5,0.5v11.232c0,0.276,0.224,0.5,0.5,0.5h2.246
			c0.276,0,0.5-0.224,0.5-0.5v-3.994h1.746c0.276,0,0.5-0.224,0.5-0.5v-2.246c0-0.276-0.224-0.5-0.5-0.5h-1.746v-1.246h3.992
			c0.276,0,0.5-0.224,0.5-0.5V16.28C35.874,16.003,35.65,15.78,35.374,15.78z"/>
		<path fill="#F4F4F4" d="M26.387,15.78h-6.738c-0.276,0-0.5,0.224-0.5,0.5v2.247c0,0.276,0.224,0.5,0.5,0.5h1.746v5.738h-1.746
			c-0.276,0-0.5,0.224-0.5,0.5v2.248c0,0.276,0.224,0.5,0.5,0.5h6.738c0.276,0,0.5-0.224,0.5-0.5v-2.248c0-0.276-0.224-0.5-0.5-0.5
			h-1.746v-5.738h1.746c0.276,0,0.5-0.224,0.5-0.5V16.28C26.887,16.003,26.664,15.78,26.387,15.78z"/>
	</g>
</g>
<g id="VIZ" display="none">
	<circle display="inline" fill="#1D1D1D" cx="21.896" cy="21.894" r="21.895"/>
	<g display="inline">
		<path fill="#F4F4F4" d="M16.935,23.978h-5.414c-0.276,0-0.5,0.224-0.5,0.5v5.166c0,0.276,0.224,0.5,0.5,0.5h5.414
			c0.276,0,0.5-0.224,0.5-0.5v-5.166C17.435,24.202,17.211,23.978,16.935,23.978z"/>
		<path fill="#F4F4F4" d="M24.601,19.312h-5.414c-0.276,0-0.5,0.224-0.5,0.5v9.832c0,0.276,0.224,0.5,0.5,0.5h5.414
			c0.276,0,0.5-0.224,0.5-0.5v-9.832C25.101,19.536,24.877,19.312,24.601,19.312z"/>
		<path fill="#F4F4F4" d="M32.269,13.645h-5.416c-0.276,0-0.5,0.224-0.5,0.5v15.499c0,0.276,0.224,0.5,0.5,0.5h5.416
			c0.276,0,0.5-0.224,0.5-0.5V14.145C32.769,13.869,32.545,13.645,32.269,13.645z"/>
	</g>
</g>
<g id="IMG" display="none">
	<circle display="inline" fill="#1D1D1D" cx="21.895" cy="21.895" r="21.896"/>
	<g display="inline">
		<path fill="#F4F4F4" d="M31.482,10.509H12.308c-0.993,0-1.799,0.805-1.799,1.799v19.175c0,0.992,0.806,1.799,1.799,1.799h19.174
			c0.994,0,1.799-0.807,1.799-1.799V12.308C33.281,11.314,32.476,10.509,31.482,10.509z M30.99,29.192
			c0,0.992-0.805,1.799-1.799,1.799H14.599c-0.994,0-1.799-0.807-1.799-1.799V14.6c0-0.994,0.805-1.799,1.799-1.799h14.592
			c0.994,0,1.799,0.805,1.799,1.799V29.192z"/>
		<circle fill="#F4F4F4" cx="16.89" cy="17.556" r="2.126"/>
		<path fill="#F4F4F4" d="M29.188,19.943c-0.182-0.078-0.396-0.042-0.541,0.095l-6.784,6.378l-3.77-2.889
			c-0.113-0.086-0.258-0.121-0.398-0.094c-0.14,0.025-0.262,0.111-0.335,0.234l-2.963,4.945c-0.093,0.154-0.095,0.348-0.006,0.504
			s0.255,0.254,0.435,0.254H28.99c0.276,0,0.5-0.225,0.5-0.5v-8.469C29.49,20.203,29.372,20.022,29.188,19.943z"/>
	</g>
</g>
<g id="MAPS" display="none">
	<circle display="inline" fill="#1D1D1D" cx="21.895" cy="21.895" r="21.895"/>
	<path display="inline" fill="#F4F4F4" d="M21.895,10.136c-4.481,0-8.127,3.646-8.127,8.127c0,0.097,0.002,0.196,0.007,0.293
		c0.03,0.842,0.188,1.663,0.458,2.418c1.637,5.378,7.042,12.203,7.271,12.491c0.095,0.119,0.238,0.188,0.391,0.188
		s0.297-0.069,0.392-0.188c0.229-0.288,5.633-7.113,7.263-12.469c0.28-0.787,0.437-1.608,0.464-2.427
		c0.007-0.104,0.009-0.206,0.009-0.307C30.022,13.782,26.376,10.136,21.895,10.136z M21.895,15.028c1.784,0,3.236,1.451,3.236,3.235
		c0,1.783-1.452,3.234-3.236,3.234s-3.236-1.451-3.236-3.234C18.659,16.479,20.111,15.028,21.895,15.028z"/>
</g>
<g id="LINK_SQUARE_1_">
	<rect x="0" y="0" fill="#1D1D1D" width="43.792" height="43.792"/>
	<g>
		<path fill="#FFFFFF" d="M13.48,21.818l1.313-1.313c-0.217,1.119-0.167,2.28,0.146,3.384c-1.084,1.385-0.99,3.398,0.284,4.674
			c1.38,1.379,3.622,1.379,5.002,0l4.168-4.168c1.379-1.379,1.379-3.623,0-5c-0.621-0.622-1.418-0.961-2.235-1.023l2.026-2.025
			c0.711,0.292,1.377,0.725,1.953,1.304c2.342,2.34,2.342,6.149,0,8.489l-4.168,4.17c-2.34,2.342-6.149,2.342-8.49,0
			C11.14,27.969,11.14,24.161,13.48,21.818z"/>
		<path fill="#FFFFFF" d="M28.846,19.901c1.086-1.388,0.994-3.399-0.281-4.677c-1.379-1.378-3.623-1.378-5.002,0.002l-4.168,4.169
			c-1.38,1.377-1.38,3.621,0,5c0.621,0.621,1.419,0.961,2.234,1.02l-2.026,2.029c-0.71-0.295-1.377-0.729-1.953-1.305
			c-2.341-2.34-2.341-6.149,0-8.489l4.168-4.168c2.341-2.343,6.152-2.343,8.492-0.002c2.342,2.343,2.342,6.15,0,8.492l-1.314,1.314
			C29.213,22.163,29.163,21.003,28.846,19.901z"/>
	</g>
</g>
<g id="LINK">
</g>
<g id="VIDEO" display="none">
	<circle display="inline" fill="#1D1D1D" cx="21.895" cy="21.896" r="21.896"/>
	<path display="inline" fill="#F4F4F4" d="M33.33,16.321c-0.291-1.255-1.32-2.18-2.561-2.317c-2.938-0.327-5.91-0.531-8.871-0.529
		c-2.959-0.002-5.932,0.202-8.867,0.529c-1.24,0.138-2.271,1.062-2.561,2.317c-0.412,1.786-0.418,3.735-0.418,5.574
		c0,1.84,0,3.79,0.412,5.575c0.291,1.254,1.32,2.18,2.561,2.316c2.938,0.328,5.91,0.531,8.869,0.529
		c2.959,0.002,5.932-0.201,8.869-0.529c1.24-0.137,2.271-1.062,2.561-2.316c0.412-1.785,0.416-3.734,0.416-5.575
		C33.74,20.057,33.742,18.107,33.33,16.321z M25.933,22.441l-5.582,3.019c-0.555,0.301-1.01,0.029-1.01-0.602v-5.926
		c0-0.631,0.455-0.902,1.01-0.602l5.582,3.02C26.49,21.649,26.49,22.142,25.933,22.441z"/>
</g>
<g id="TWEET" display="none">
	<circle display="inline" fill="#1D1D1D" cx="21.896" cy="21.894" r="21.895"/>
	<path display="inline" fill="#F4F4F4" d="M33.561,16.279c-0.785,0.349-1.629,0.584-2.514,0.689
		c0.903-0.541,1.598-1.399,1.924-2.422c-0.845,0.502-1.782,0.866-2.778,1.062c-0.799-0.85-1.937-1.382-3.194-1.382
		c-2.417,0-4.377,1.96-4.377,4.376c0,0.343,0.039,0.678,0.113,0.998c-3.636-0.184-6.861-1.926-9.02-4.572
		c-0.377,0.646-0.593,1.397-0.593,2.199c0,1.519,0.772,2.857,1.947,3.643c-0.718-0.022-1.393-0.22-1.983-0.547
		c0,0.018,0,0.036,0,0.055c0,2.12,1.51,3.889,3.511,4.291c-0.366,0.1-0.754,0.153-1.152,0.153c-0.282,0-0.556-0.027-0.823-0.079
		c0.557,1.739,2.173,3.004,4.086,3.04c-1.496,1.173-3.383,1.873-5.434,1.873c-0.352,0-0.702-0.021-1.044-0.062
		c1.937,1.242,4.237,1.967,6.708,1.967c8.05,0,12.452-6.668,12.452-12.451c0-0.189-0.005-0.379-0.013-0.566
		C32.231,17.927,32.975,17.156,33.561,16.279z"/>
</g>
<g id="BOLD" display="none">
	<g display="inline">
		<circle fill="#1D1D1D" cx="21.896" cy="21.895" r="21.895"/>
		<path fill="#F4F4F4" d="M25.613,20.859c1.219-0.639,1.903-1.751,1.903-3.145c0-2.806-2.192-4.764-5.328-4.764h-6.704
			c-0.154,0-0.277,0.124-0.277,0.277v17.338c0,0.152,0.123,0.277,0.277,0.277h7.013c3.641,0,6.089-2.264,6.089-5.631
			C28.585,23.088,27.54,21.57,25.613,20.859z M19.332,22.938h2.807c1.417,0,2.299,0.803,2.299,2.096
			c0,1.287-0.823,2.117-2.093,2.117h-3.013V22.938z M21.806,19.349h-2.475v-2.708h2.654c0.927,0,1.456,0.494,1.456,1.354
			C23.442,18.83,22.816,19.349,21.806,19.349z"/>
	</g>
</g>
<g id="UNDERLINE" display="none">
	<g display="inline">
		<circle fill="#1D1D1D" cx="21.896" cy="21.896" r="21.895"/>
		<g>
			<path fill="#F4F4F4" d="M27.584,12.292h-2.946c-0.35,0-0.634,0.284-0.634,0.635v6.709c0,2.29-1.015,2.604-2.11,2.604
				c-1.093,0-2.105-0.313-2.105-2.604v-6.709c0-0.351-0.284-0.635-0.636-0.635h-2.946c-0.351,0-0.635,0.284-0.635,0.635v6.797
				c0,3.997,2.32,6.383,6.207,6.383c3.972,0,6.44-2.446,6.44-6.383v-6.797C28.219,12.577,27.936,12.292,27.584,12.292z"/>
			<path fill="#F4F4F4" d="M27.604,31.496H16.185c-0.7,0-1.268-0.567-1.268-1.27c0-0.699,0.567-1.267,1.268-1.267h11.419
				c0.701,0,1.269,0.567,1.269,1.267C28.873,30.928,28.305,31.496,27.604,31.496z"/>
		</g>
	</g>
</g>
<g id="ITALIC" display="none">
	<g display="inline">
		<circle fill="#1D1D1D" cx="21.896" cy="21.894" r="21.895"/>
		<g>
			<path fill="#F4F4F4" d="M24.125,19.258c0.032-0.181-0.018-0.366-0.135-0.506c-0.117-0.142-0.291-0.222-0.476-0.222H20.67
				c-0.3,0-0.558,0.216-0.609,0.514l-1.536,8.898c-0.246,1.334-0.12,2.246,0.396,2.866c0.671,0.806,1.835,0.91,2.774,0.91h1.395
				c0.302,0,0.559-0.218,0.61-0.514l0.369-2.163c0.032-0.181-0.018-0.365-0.137-0.504c-0.119-0.138-0.289-0.22-0.474-0.22
				l-0.937-0.004c0.002-0.028,0.004-0.058,0.011-0.094L24.125,19.258z"/>
			<path fill="#F4F4F4" d="M22.891,12.071c-1.37,0-2.441,1.071-2.441,2.44c0,1.384,1.086,2.468,2.47,2.468s2.467-1.084,2.467-2.468
				C25.386,13.142,24.289,12.071,22.891,12.071z"/>
		</g>
	</g>
</g>
<g id="CARDLINK" display="none">
	<circle display="inline" fill="#1D1D1D" cx="21.896" cy="21.896" r="21.895"/>
	<g display="inline">
		<g>
			<path fill-rule="evenodd" clip-rule="evenodd" fill="#F4F4F4" d="M25.254,8.741C26,8.774,26.487,9.036,26.772,9.604
				c1.699,3.404,3.398,6.811,5.092,10.22c0.439,0.881,0.137,1.747-0.748,2.188c-4.555,2.271-9.111,4.541-13.667,6.811
				c-0.797,0.396-1.701,0.101-2.099-0.692c-1.71-3.422-3.417-6.846-5.119-10.27c-0.396-0.795-0.095-1.692,0.698-2.089
				c4.569-2.281,9.14-4.559,13.712-6.833C24.864,8.829,25.12,8.784,25.254,8.741z M16.795,28.033
				c0.066-0.022,0.215-0.063,0.352-0.131c4.509-2.239,9.016-4.481,13.526-6.722c0.455-0.227,0.553-0.521,0.32-0.988
				c-1.666-3.348-3.334-6.695-5.002-10.042c-0.236-0.474-0.527-0.57-1-0.335c-4.511,2.247-9.02,4.494-13.533,6.739
				c-0.358,0.179-0.597,0.501-0.338,1.008c0.84,1.64,1.648,3.295,2.468,4.942c0.848,1.7,1.694,3.399,2.542,5.099
				C16.251,27.841,16.405,28.035,16.795,28.033z"/>
			<path fill-rule="evenodd" clip-rule="evenodd" fill="#F4F4F4" d="M30.35,14.506c0.709,0,1.383-0.061,2.041,0.015
				c0.85,0.097,1.34,0.775,1.34,1.698c0.004,3.498,0.004,6.994,0,10.49c0,0.348-0.008,0.699-0.043,1.043
				c-0.078,0.771-0.709,1.327-1.482,1.327c-4.225,0.002-8.447,0-12.669,0c-0.071,0-0.143,0-0.213,0
				c-0.004-0.016-0.011-0.032-0.015-0.05c0.589-0.294,1.178-0.593,1.774-0.876c0.067-0.034,0.163-0.011,0.244-0.011
				c3.58,0,7.158,0,10.74,0c0.477,0,0.682-0.191,0.713-0.667c0.004-0.046,0.004-0.093,0.004-0.139c0-3.689,0-7.38-0.004-11.069
				c0-0.1-0.01-0.201-0.025-0.3c-0.049-0.315-0.283-0.522-0.6-0.527c-0.387-0.007-0.775,0.009-1.16-0.01
				c-0.092-0.005-0.215-0.083-0.266-0.164C30.59,15.035,30.485,14.783,30.35,14.506z"/>
			<path fill-rule="evenodd" clip-rule="evenodd" fill="#F4F4F4" d="M17.177,30.11c0.624,0,1.249-0.007,1.873,0.006
				c0.112,0.002,0.23,0.061,0.334,0.113c2.508,1.247,5.017,2.498,7.521,3.746c0.496,0.247,0.775,0.156,1.021-0.337
				c0.553-1.106,1.105-2.21,1.65-3.32c0.074-0.154,0.158-0.222,0.332-0.213c0.254,0.013,0.512,0.004,0.795,0.004
				c-0.023,0.085-0.035,0.144-0.059,0.194c-0.646,1.295-1.289,2.594-1.941,3.884c-0.395,0.782-1.295,1.08-2.072,0.695
				c-3.09-1.535-6.18-3.071-9.27-4.605c-0.069-0.035-0.135-0.076-0.202-0.115C17.164,30.144,17.17,30.128,17.177,30.11z"/>
			<path fill-rule="evenodd" clip-rule="evenodd" fill="#F4F4F4" d="M14.598,28.902c-0.684-0.35-1.323-0.631-1.916-0.989
				c-0.671-0.404-0.873-1.221-0.543-1.944c0.149-0.319,0.309-0.634,0.489-1.002c0.185,0.358,0.362,0.676,0.501,1.011
				c0.033,0.08-0.061,0.218-0.106,0.324c-0.178,0.397-0.104,0.734,0.285,0.888c0.484,0.185,0.754,0.521,0.932,0.976
				C14.331,28.391,14.452,28.604,14.598,28.902z"/>
		</g>
		<g>
			<g>
				<path fill="#FFFFFF" d="M20.44,18.413c-0.081,0.025-0.156,0.04-0.224,0.072c-0.392,0.193-0.78,0.393-1.174,0.585
					c-0.064,0.031-0.08,0.067-0.057,0.131c0.076,0.215,0.131,0.44,0.23,0.644c0.724,1.496,2.595,2.146,4.067,1.42
					c0.936-0.463,1.869-0.928,2.799-1.401c0.934-0.474,1.518-1.231,1.684-2.265c0.191-1.19-0.193-2.2-1.145-2.938
					c-0.965-0.746-2.047-0.874-3.164-0.377c-0.725,0.322-1.424,0.704-2.133,1.059c-0.018,0.009-0.032,0.021-0.062,0.042
					c0.68,0.122,1.272,0.397,1.786,0.815c0.33-0.163,0.65-0.321,0.973-0.477c0.801-0.387,1.715-0.084,2.09,0.69
					c0.377,0.777,0.062,1.67-0.73,2.067c-0.902,0.453-1.807,0.907-2.71,1.36c-0.773,0.387-1.682,0.083-2.072-0.688
					C20.483,18.924,20.444,18.682,20.44,18.413z M22.129,19.221c0.082-0.027,0.153-0.044,0.215-0.073
					c0.384-0.188,0.762-0.382,1.145-0.566c0.096-0.045,0.113-0.092,0.088-0.191c-0.453-1.847-2.521-2.846-4.26-2.032
					c-0.969,0.454-1.924,0.942-2.874,1.437c-0.942,0.489-1.51,1.273-1.651,2.327c-0.158,1.182,0.246,2.168,1.199,2.883
					c0.958,0.716,2.027,0.835,3.123,0.344c0.729-0.324,1.434-0.708,2.146-1.066c0.013-0.005,0.021-0.018,0.036-0.028
					c-0.015-0.007-0.021-0.013-0.028-0.014c-0.628-0.114-1.19-0.373-1.694-0.763c-0.03-0.023-0.098-0.025-0.133-0.009
					c-0.295,0.14-0.582,0.29-0.873,0.435c-0.509,0.248-1.019,0.255-1.508-0.039c-0.508-0.304-0.767-0.767-0.752-1.36
					c0.014-0.61,0.315-1.062,0.854-1.339c0.903-0.464,1.81-0.918,2.722-1.366c0.589-0.288,1.163-0.236,1.682,0.173
					C21.955,18.278,22.129,18.699,22.129,19.221z"/>
				<path fill="#F4F4F4" d="M17.92,23.662c-0.682,0.029-1.332-0.188-1.94-0.644c-0.949-0.711-1.364-1.714-1.206-2.899
					c0.14-1.054,0.7-1.842,1.66-2.342c0.858-0.445,1.86-0.96,2.875-1.436c0.369-0.172,0.76-0.268,1.164-0.285
					c1.463-0.06,2.776,0.919,3.122,2.329c0.027,0.111,0.002,0.164-0.1,0.213c-0.234,0.112-0.467,0.23-0.695,0.344
					c-0.149,0.074-0.298,0.148-0.447,0.223c-0.046,0.021-0.092,0.035-0.146,0.051c-0.021,0.008-0.046,0.015-0.072,0.023
					c-0.006-0.001-0.013,0.001-0.016-0.003c-0.006-0.003-0.008-0.009-0.008-0.015c0-0.534-0.181-0.938-0.557-1.234
					c-0.508-0.402-1.077-0.461-1.664-0.172c-0.928,0.455-1.843,0.915-2.721,1.365c-0.547,0.28-0.829,0.727-0.845,1.323
					c-0.015,0.588,0.236,1.041,0.745,1.346c0.463,0.278,0.972,0.291,1.488,0.035c0.117-0.057,0.235-0.117,0.353-0.175
					c0.173-0.087,0.345-0.173,0.521-0.258c0.019-0.009,0.039-0.011,0.058-0.013c0.028-0.001,0.068,0.006,0.094,0.023
					c0.506,0.393,1.071,0.646,1.687,0.76c0.006,0.001,0.011,0.003,0.018,0.007c0.004,0.003,0.008,0.003,0.015,0.007
					c0.005,0.002,0.009,0.007,0.011,0.015c0,0.005-0.002,0.01-0.007,0.016l-0.011,0.011c-0.009,0.009-0.018,0.016-0.028,0.022
					c-0.215,0.106-0.43,0.217-0.643,0.327c-0.489,0.252-0.993,0.511-1.502,0.737C18.718,23.545,18.313,23.644,17.92,23.662z
					 M20.475,16.093c-0.399,0.017-0.786,0.111-1.149,0.281c-1.015,0.474-2.018,0.989-2.874,1.437
					c-0.949,0.493-1.503,1.271-1.643,2.313c-0.156,1.171,0.255,2.163,1.193,2.863c0.6,0.451,1.246,0.664,1.916,0.637
					c0.391-0.016,0.789-0.115,1.188-0.292c0.51-0.228,1.013-0.486,1.501-0.738c0.215-0.11,0.43-0.22,0.646-0.328
					c0.002-0.002,0.006-0.004,0.009-0.007c-0.624-0.117-1.193-0.375-1.699-0.769c-0.023-0.016-0.085-0.02-0.115-0.007
					c-0.174,0.085-0.348,0.17-0.52,0.259c-0.119,0.059-0.236,0.117-0.354,0.176c-0.528,0.259-1.048,0.246-1.523-0.037
					c-0.513-0.309-0.775-0.784-0.761-1.378c0.014-0.604,0.312-1.072,0.861-1.355c0.88-0.45,1.796-0.909,2.726-1.366
					c0.6-0.291,1.185-0.233,1.699,0.176c0.379,0.3,0.567,0.705,0.571,1.239c0.018-0.006,0.035-0.011,0.051-0.017
					c0.052-0.015,0.096-0.029,0.139-0.049c0.147-0.072,0.296-0.147,0.445-0.222c0.228-0.114,0.464-0.232,0.699-0.344
					c0.086-0.041,0.102-0.077,0.078-0.172C23.217,17.002,21.92,16.034,20.475,16.093z M22.115,21.578
					c-1.221,0.052-2.392-0.643-2.916-1.725c-0.066-0.139-0.114-0.289-0.16-0.435c-0.022-0.07-0.046-0.142-0.07-0.212
					c-0.027-0.072-0.008-0.116,0.067-0.153c0.194-0.096,0.39-0.194,0.585-0.292c0.197-0.098,0.392-0.195,0.589-0.292
					c0.046-0.024,0.1-0.038,0.152-0.055c0.023-0.006,0.048-0.012,0.073-0.021c0.003,0,0.011,0,0.016,0.003
					c0.004,0.004,0.007,0.009,0.007,0.016c0.004,0.294,0.054,0.526,0.156,0.732c0.273,0.544,0.816,0.868,1.416,0.844
					c0.216-0.01,0.429-0.064,0.631-0.165c0.664-0.333,1.33-0.667,1.994-1.001l0.717-0.36c0.785-0.393,1.098-1.271,0.723-2.042
					c-0.264-0.548-0.809-0.872-1.42-0.847c-0.221,0.009-0.441,0.064-0.646,0.165c-0.219,0.104-0.438,0.212-0.656,0.32l-0.314,0.155
					c-0.006,0.005-0.012,0.004-0.02-0.003c-0.514-0.417-1.114-0.69-1.778-0.811c-0.009-0.002-0.014-0.006-0.014-0.013
					c-0.004-0.009,0-0.016,0.007-0.02l0.021-0.018c0.016-0.011,0.028-0.02,0.039-0.026c0.224-0.11,0.443-0.224,0.665-0.337
					c0.479-0.246,0.973-0.5,1.473-0.722c0.406-0.181,0.811-0.279,1.203-0.296c0.695-0.028,1.363,0.199,1.977,0.675
					c0.947,0.734,1.346,1.757,1.152,2.956c-0.164,1.024-0.734,1.79-1.691,2.278c-0.99,0.502-1.971,0.989-2.801,1.398
					C22.926,21.458,22.53,21.562,22.115,21.578z M20.423,18.437c-0.018,0.005-0.033,0.009-0.05,0.014
					c-0.053,0.015-0.103,0.029-0.148,0.051c-0.195,0.096-0.391,0.194-0.586,0.293c-0.195,0.098-0.39,0.195-0.589,0.292
					c-0.053,0.028-0.067,0.054-0.046,0.108c0.024,0.069,0.046,0.141,0.069,0.213c0.048,0.144,0.094,0.293,0.159,0.429
					c0.519,1.069,1.677,1.754,2.883,1.704c0.408-0.016,0.797-0.115,1.161-0.295c0.83-0.409,1.812-0.897,2.799-1.399
					c0.947-0.481,1.512-1.239,1.674-2.251c0.191-1.186-0.201-2.196-1.139-2.921c-0.609-0.471-1.266-0.696-1.955-0.668
					c-0.389,0.017-0.789,0.115-1.188,0.292c-0.5,0.222-0.994,0.476-1.473,0.722c-0.22,0.113-0.441,0.227-0.663,0.339
					c-0.007,0.003-0.014,0.008-0.024,0.015c0.65,0.124,1.238,0.395,1.745,0.803l0.305-0.15c0.221-0.107,0.438-0.214,0.656-0.319
					c0.211-0.103,0.434-0.16,0.66-0.169c0.625-0.025,1.182,0.306,1.455,0.867c0.383,0.79,0.064,1.688-0.74,2.091l-0.715,0.359
					c-0.666,0.334-1.33,0.668-1.997,1.001c-0.204,0.104-0.422,0.16-0.646,0.17c-0.612,0.024-1.167-0.307-1.449-0.866
					C20.479,18.956,20.428,18.725,20.423,18.437z"/>
			</g>
			<g>
				<path fill-rule="evenodd" clip-rule="evenodd" fill="#FFFFFF" d="M20.44,18.413c0.004,0.27,0.043,0.512,0.156,0.739
					c0.391,0.771,1.299,1.075,2.072,0.688c0.904-0.453,1.808-0.907,2.71-1.36c0.793-0.397,1.107-1.29,0.73-2.067
					c-0.375-0.774-1.289-1.077-2.09-0.69c-0.322,0.155-0.643,0.313-0.973,0.477c-0.513-0.418-1.106-0.693-1.786-0.815
					c0.03-0.021,0.045-0.033,0.062-0.042c0.709-0.354,1.408-0.736,2.133-1.059c1.117-0.497,2.199-0.369,3.164,0.377
					c0.951,0.738,1.336,1.748,1.145,2.938c-0.166,1.033-0.75,1.791-1.684,2.265c-0.93,0.474-1.863,0.938-2.799,1.401
					c-1.472,0.727-3.343,0.076-4.067-1.42c-0.1-0.203-0.154-0.429-0.23-0.644c-0.023-0.063-0.008-0.1,0.057-0.131
					c0.394-0.192,0.782-0.392,1.174-0.585C20.284,18.453,20.359,18.438,20.44,18.413z"/>
				<path fill="#F4F4F4" d="M22.115,21.578c-1.221,0.052-2.392-0.643-2.916-1.725c-0.066-0.139-0.114-0.289-0.16-0.435
					c-0.022-0.07-0.046-0.142-0.07-0.212c-0.027-0.072-0.008-0.116,0.067-0.153c0.194-0.096,0.39-0.194,0.585-0.292
					c0.197-0.098,0.392-0.195,0.589-0.292c0.046-0.024,0.1-0.038,0.152-0.055c0.023-0.006,0.048-0.012,0.073-0.021
					c0.003,0,0.011,0,0.016,0.003c0.004,0.004,0.007,0.009,0.007,0.016c0.004,0.294,0.054,0.526,0.156,0.732
					c0.273,0.544,0.816,0.868,1.416,0.844c0.216-0.01,0.429-0.064,0.631-0.165c0.673-0.337,1.347-0.676,2.021-1.014l0.689-0.348
					c0.785-0.393,1.098-1.271,0.723-2.042c-0.264-0.548-0.809-0.872-1.42-0.847c-0.221,0.009-0.441,0.064-0.646,0.165
					c-0.221,0.105-0.438,0.212-0.656,0.322l-0.314,0.153c-0.006,0.005-0.012,0.004-0.02-0.003c-0.514-0.417-1.114-0.69-1.778-0.811
					c-0.009-0.002-0.014-0.006-0.014-0.013c-0.004-0.008,0-0.016,0.007-0.02l0.021-0.018c0.016-0.011,0.028-0.02,0.039-0.026
					c0.224-0.11,0.443-0.224,0.665-0.337c0.479-0.246,0.973-0.5,1.473-0.722c0.406-0.181,0.811-0.279,1.203-0.296
					c0.695-0.028,1.363,0.199,1.977,0.675c0.947,0.734,1.346,1.757,1.152,2.956c-0.164,1.024-0.734,1.79-1.691,2.278
					c-0.988,0.501-1.969,0.989-2.801,1.398C22.926,21.458,22.53,21.562,22.115,21.578z M20.423,18.437
					c-0.018,0.005-0.033,0.009-0.05,0.014c-0.053,0.015-0.103,0.029-0.148,0.051c-0.195,0.096-0.391,0.194-0.586,0.293
					c-0.195,0.098-0.39,0.195-0.589,0.292c-0.053,0.028-0.067,0.054-0.046,0.108c0.024,0.069,0.046,0.141,0.069,0.213
					c0.048,0.144,0.094,0.293,0.159,0.429c0.519,1.069,1.677,1.754,2.883,1.704c0.408-0.016,0.797-0.115,1.161-0.295
					c0.83-0.41,1.812-0.897,2.799-1.399c0.947-0.481,1.512-1.239,1.674-2.251c0.191-1.186-0.201-2.196-1.139-2.921
					c-0.609-0.471-1.266-0.696-1.955-0.668c-0.389,0.017-0.789,0.115-1.188,0.292c-0.5,0.222-0.994,0.476-1.473,0.722
					c-0.22,0.113-0.441,0.227-0.663,0.339c-0.007,0.003-0.014,0.008-0.024,0.015c0.65,0.124,1.238,0.395,1.745,0.803l0.305-0.149
					c0.219-0.107,0.438-0.215,0.656-0.32c0.211-0.103,0.434-0.16,0.66-0.169c0.625-0.025,1.182,0.306,1.455,0.867
					c0.383,0.79,0.064,1.688-0.74,2.091l-0.689,0.347c-0.674,0.338-1.348,0.677-2.022,1.014c-0.204,0.104-0.422,0.16-0.646,0.17
					c-0.612,0.024-1.167-0.307-1.449-0.866C20.479,18.956,20.428,18.725,20.423,18.437z"/>
			</g>
			<g>
				<path fill-rule="evenodd" clip-rule="evenodd" fill="#FFFFFF" d="M22.129,19.221c0-0.522-0.174-0.943-0.563-1.25
					c-0.519-0.409-1.093-0.461-1.682-0.173c-0.912,0.448-1.818,0.902-2.722,1.366c-0.539,0.276-0.841,0.729-0.854,1.339
					c-0.015,0.594,0.244,1.057,0.752,1.36c0.489,0.294,0.999,0.287,1.508,0.039c0.291-0.145,0.578-0.295,0.873-0.435
					c0.035-0.017,0.103-0.015,0.133,0.009c0.504,0.39,1.066,0.648,1.694,0.763c0.007,0.001,0.014,0.007,0.028,0.014
					c-0.015,0.011-0.023,0.023-0.036,0.028c-0.713,0.358-1.417,0.742-2.146,1.066c-1.096,0.491-2.165,0.372-3.123-0.344
					c-0.953-0.715-1.357-1.701-1.199-2.883c0.142-1.054,0.709-1.838,1.651-2.327c0.95-0.494,1.905-0.982,2.874-1.437
					c1.739-0.813,3.807,0.186,4.26,2.032c0.025,0.1,0.008,0.146-0.088,0.191c-0.383,0.185-0.761,0.378-1.145,0.566
					C22.282,19.177,22.211,19.194,22.129,19.221z"/>
				<path fill="#F4F4F4" d="M17.92,23.662c-0.682,0.029-1.332-0.188-1.94-0.644c-0.949-0.711-1.364-1.714-1.206-2.899
					c0.14-1.054,0.7-1.842,1.66-2.342c0.858-0.445,1.86-0.96,2.875-1.436c0.369-0.172,0.76-0.268,1.164-0.285
					c1.463-0.06,2.776,0.919,3.122,2.329c0.027,0.111,0.002,0.164-0.1,0.213c-0.234,0.112-0.467,0.23-0.695,0.344
					c-0.149,0.074-0.298,0.148-0.447,0.223c-0.046,0.021-0.092,0.035-0.146,0.051c-0.021,0.008-0.046,0.015-0.072,0.023
					c-0.006-0.001-0.013,0.001-0.016-0.003c-0.006-0.003-0.008-0.009-0.008-0.015c0-0.534-0.181-0.938-0.557-1.234
					c-0.508-0.402-1.077-0.461-1.664-0.172c-0.926,0.455-1.841,0.915-2.721,1.365c-0.547,0.28-0.829,0.727-0.845,1.323
					c-0.015,0.588,0.236,1.041,0.745,1.346c0.463,0.278,0.972,0.291,1.488,0.035c0.117-0.057,0.235-0.117,0.353-0.175
					c0.173-0.087,0.345-0.173,0.521-0.258c0.019-0.009,0.039-0.011,0.058-0.013c0.028-0.001,0.068,0.006,0.094,0.023
					c0.506,0.393,1.071,0.646,1.687,0.76c0.006,0.001,0.011,0.003,0.018,0.007c0.004,0.003,0.008,0.003,0.015,0.007
					c0.005,0.002,0.009,0.007,0.011,0.015c0,0.005-0.002,0.01-0.007,0.016l-0.011,0.011c-0.009,0.009-0.018,0.016-0.028,0.022
					c-0.215,0.106-0.43,0.217-0.645,0.327c-0.487,0.252-0.991,0.511-1.5,0.737C18.718,23.545,18.313,23.644,17.92,23.662z
					 M20.475,16.093c-0.399,0.017-0.786,0.111-1.149,0.281c-1.015,0.474-2.018,0.989-2.874,1.437
					c-0.949,0.493-1.503,1.271-1.643,2.313c-0.156,1.171,0.255,2.163,1.193,2.863c0.6,0.451,1.246,0.664,1.916,0.637
					c0.391-0.016,0.789-0.115,1.188-0.292c0.51-0.228,1.013-0.486,1.501-0.738c0.215-0.11,0.43-0.22,0.646-0.328
					c0.002-0.002,0.006-0.004,0.009-0.007c-0.624-0.117-1.193-0.375-1.699-0.769c-0.023-0.016-0.085-0.02-0.115-0.007
					c-0.174,0.085-0.348,0.17-0.52,0.259c-0.119,0.059-0.236,0.117-0.354,0.176c-0.528,0.259-1.048,0.246-1.523-0.037
					c-0.513-0.309-0.775-0.784-0.761-1.378c0.014-0.604,0.312-1.072,0.861-1.355c0.88-0.45,1.796-0.91,2.726-1.366
					c0.6-0.291,1.185-0.233,1.699,0.176c0.379,0.3,0.567,0.705,0.571,1.239c0.018-0.006,0.035-0.011,0.051-0.017
					c0.052-0.015,0.096-0.029,0.139-0.049c0.147-0.072,0.296-0.147,0.445-0.222c0.228-0.114,0.464-0.232,0.699-0.344
					c0.086-0.041,0.102-0.077,0.078-0.172C23.217,17.002,21.92,16.034,20.475,16.093z"/>
			</g>
		</g>
	</g>
</g>
<g id="SEARCH" display="none">
	<g display="inline">
		<path fill-rule="evenodd" clip-rule="evenodd" fill="#F8F8F8" d="M528.821,785.165c0.32,0.062,0.646,0.1,0.959,0.189
			c2.363,0.689,3.838,2.238,4.297,4.656c0.525,2.76-0.99,5.439-3.58,6.486c-2.766,1.117-5.959-0.037-7.371-2.664
			c-1.873-3.49,0.141-7.768,4.029-8.561c0.209-0.043,0.422-0.072,0.633-0.107C528.131,785.165,528.475,785.165,528.821,785.165z
			 M524.381,791.03c0.002,2.137,1.707,3.906,3.91,3.932c2.068,0.023,3.863-1.709,3.93-3.752c0.072-2.197-1.641-4.057-3.877-4.09
			C526.178,787.088,524.422,788.823,524.381,791.03z"/>
		<path fill-rule="evenodd" clip-rule="evenodd" fill="#F8F8F8" d="M538.958,799.79c-0.074,0.084-0.145,0.17-0.225,0.25
			c-0.496,0.498-0.994,0.996-1.494,1.494c-0.223,0.225-0.404,0.227-0.623,0.008c-1.48-1.479-2.961-2.959-4.439-4.439
			c-0.223-0.221-0.221-0.402,0-0.623c0.525-0.525,1.051-1.051,1.574-1.576c0.207-0.205,0.396-0.207,0.602-0.002
			c1.488,1.486,2.975,2.973,4.463,4.461c0.051,0.053,0.094,0.113,0.143,0.17C538.958,799.618,538.958,799.704,538.958,799.79z"/>
	</g>
	<g display="inline">
		<path fill-rule="evenodd" clip-rule="evenodd" fill="#F8F8F8" d="M30.823,12.877C29.616,6.509,25.727,2.431,19.505,0.614
			c-0.823-0.236-1.682-0.334-2.526-0.499c-0.908,0-1.816,0-2.721,0c-0.556,0.092-1.116,0.17-1.664,0.283
			C2.35,2.487-2.953,13.754,1.982,22.944c3.717,6.919,12.127,9.961,19.411,7.019C28.213,27.206,32.204,20.146,30.823,12.877z
			 M15.587,25.917C9.785,25.853,5.292,21.19,5.29,15.562C5.397,9.752,10.02,5.183,15.724,5.264
			c5.893,0.088,10.402,4.984,10.21,10.774C25.758,21.416,21.032,25.979,15.587,25.917z"/>
		<path fill-rule="evenodd" clip-rule="evenodd" fill="#F8F8F8" d="M43.299,37.506c-3.916-3.917-7.83-7.834-11.752-11.749
			c-0.541-0.54-1.041-0.535-1.582,0.009c-1.383,1.38-2.766,2.764-4.148,4.148c-0.58,0.58-0.586,1.059,0,1.641
			c3.896,3.898,7.791,7.797,11.691,11.69c0.576,0.579,1.055,0.571,1.643-0.017c1.314-1.312,2.627-2.624,3.936-3.938
			c0.207-0.209,0.393-0.438,0.588-0.659c0-0.227,0-0.452,0-0.679C43.549,37.804,43.436,37.645,43.299,37.506z"/>
	</g>
</g>
<g id="BABYBURGER" display="none">
	<circle display="inline" fill="#D4D6D8" cx="21.895" cy="21.895" r="21.807"/>
	<g display="inline">
		<path fill="#F4F4F4" d="M30.882,14.004H12.907c-0.441,0-0.8,0.288-0.8,0.643v2.632c0,0.355,0.358,0.643,0.8,0.643h17.975
			c0.443,0,0.801-0.287,0.801-0.643v-2.632C31.683,14.292,31.326,14.004,30.882,14.004z"/>
		<path fill="#F4F4F4" d="M30.882,19.937H12.907c-0.441,0-0.8,0.287-0.8,0.643v2.63c0,0.354,0.358,0.643,0.8,0.643h17.975
			c0.443,0,0.801-0.289,0.801-0.643v-2.63C31.683,20.224,31.326,19.937,30.882,19.937z"/>
		<path fill="#F4F4F4" d="M30.882,25.868H12.907c-0.441,0-0.8,0.287-0.8,0.643v2.632c0,0.355,0.358,0.644,0.8,0.644h17.975
			c0.443,0,0.801-0.288,0.801-0.644V26.51C31.683,26.155,31.326,25.868,30.882,25.868z"/>
	</g>
</g>
<g id="DELETE_LINK" display="none">
	<path display="inline" fill="#323232" d="M21.893,0C9.803,0,0,9.804,0,21.893C0,33.989,9.803,43.79,21.893,43.79
		c12.096,0,21.896-9.801,21.896-21.896C43.79,9.804,33.989,0,21.893,0z"/>
	<g display="inline">
		<path fill="#F4F4F4" d="M29.904,27.25c0,0.736-0.264,1.369-0.791,1.896c-0.527,0.525-1.162,0.789-1.901,0.789
			c-0.737,0-1.371-0.264-1.897-0.791l-3.42-3.451l-3.386,3.451c-0.527,0.527-1.171,0.791-1.93,0.791
			c-0.74,0-1.373-0.264-1.901-0.789c-0.526-0.527-0.791-1.16-0.791-1.896c0-0.738,0.265-1.369,0.791-1.895l3.42-3.444l-3.42-3.475
			c-0.526-0.526-0.791-1.159-0.791-1.896c0-0.738,0.265-1.37,0.791-1.896c0.528-0.526,1.161-0.791,1.901-0.791
			c0.759,0,1.402,0.263,1.93,0.786l3.386,3.425l3.42-3.425c0.526-0.523,1.16-0.786,1.897-0.786c0.739,0,1.374,0.265,1.901,0.791
			c0.527,0.525,0.791,1.157,0.791,1.896c0,0.758-0.253,1.389-0.76,1.896l-3.45,3.475l3.45,3.444
			C29.651,25.862,29.904,26.493,29.904,27.25z"/>
	</g>
</g>
</svg>
