<?xml version="1.0" encoding="utf-8"?>
<!-- Generator: Adobe Illustrator 16.0.0, SVG Export Plug-In . SVG Version: 6.00 Build 0)  -->
<!DOCTYPE svg PUBLIC "-//W3C//DTD SVG 1.1//EN" "http://www.w3.org/Graphics/SVG/1.1/DTD/svg11.dtd">
<svg version="1.1" id="Layer_1" xmlns="http://www.w3.org/2000/svg" xmlns:xlink="http://www.w3.org/1999/xlink" x="0px" y="0px"
	 width="43.791px" height="43.791px" viewBox="0 0 43.791 43.791" enable-background="new 0 0 43.791 43.791" xml:space="preserve">
<rect x="0" y="0" fill="#1D1D1D" width="43.79" height="43.79"/>
<g>
	<path fill="#F4F4F4" d="M25.751,27.188c-0.048-0.058-0.141-0.088-0.218-0.088c-0.023,0-0.087,0.01-0.108,0.016
		c-1.257,0.314-2.521,0.299-3.76-0.049c-0.252-0.072-0.425,0.047-0.515,0.139c-0.293,0.298-0.589,0.592-0.884,0.887l-0.763,0.764
		c-0.816,0.793-1.774,1.099-2.852,0.9c-1.265-0.229-2.107-0.957-2.504-2.162c-0.4-1.217-0.157-2.304,0.722-3.229
		c0.918-0.961,1.93-1.974,3.186-3.189c0.567-0.55,1.318-0.866,2.114-0.891l0.101-0.001c1.27,0,2.39,0.707,2.924,1.847
		c0.082,0.172,0.142,0.354,0.203,0.542c0.033,0.103,0.067,0.205,0.105,0.31c0.039,0.107,0.152,0.183,0.26,0.164
		c0.67-0.063,1.254-0.334,1.734-0.805c0.135-0.131,0.268-0.265,0.4-0.399c0.152-0.154,0.307-0.309,0.465-0.462
		c0.207-0.204,0.121-0.417,0.094-0.488c-0.408-0.985-1.068-1.879-1.913-2.585c-1.472-1.23-3.406-1.8-5.272-1.544
		c-1.51,0.207-2.815,0.842-3.88,1.889l-0.334,0.33c-0.857,0.843-1.743,1.714-2.587,2.599c-1.613,1.688-2.227,3.707-1.823,6
		c0.574,3.233,3.389,5.58,6.693,5.58c0.218,0,0.438-0.01,0.658-0.031c0.78-0.073,1.523-0.281,2.271-0.637
		c0.511-0.242,0.946-0.51,1.331-0.815c0.191-0.15,0.387-0.325,0.597-0.534c0.928-0.919,1.853-1.84,2.77-2.771
		c0.193-0.197,0.373-0.408,0.552-0.621c0.086-0.101,0.172-0.201,0.258-0.301c0.076-0.085,0.084-0.21,0.021-0.304
		C25.792,27.239,25.756,27.194,25.751,27.188z"/>
	<path fill="#F4F4F4" d="M32.834,15.033c-0.931-2.694-3.497-4.504-6.388-4.504c-0.358,0-0.721,0.029-1.074,0.087
		c-1.451,0.237-2.706,0.872-3.732,1.884c-0.962,0.955-1.921,1.914-2.875,2.88c-0.166,0.168-0.316,0.351-0.465,0.535l-0.191,0.232
		c-0.029,0.035-0.053,0.073-0.108,0.161c-0.049,0.074-0.055,0.169-0.016,0.249c0.039,0.08,0.118,0.133,0.207,0.139l0.045-0.231
		l0.02,0.236c0.021,0,0.051-0.004,0.071-0.009c1.262-0.33,2.546-0.312,3.817,0.049c0.248,0.072,0.418-0.079,0.461-0.123l0.487-0.493
		c0.405-0.411,0.812-0.82,1.228-1.219c0.826-0.79,1.802-1.077,2.89-0.853c1.261,0.264,2.084,1.014,2.448,2.229
		c0.229,0.768,0.182,1.512-0.137,2.212c-0.186,0.405-0.397,0.724-0.668,1.003c-0.805,0.822-1.619,1.631-2.436,2.44l-0.636,0.631
		c-0.612,0.611-1.425,0.949-2.283,0.949c-0.962,0-1.869-0.428-2.487-1.171c-0.276-0.333-0.477-0.739-0.612-1.239
		c-0.033-0.121-0.148-0.202-0.274-0.182c-0.124,0.016-0.217,0.122-0.217,0.248v4.573c0,0.087,0.045,0.167,0.119,0.213
		c1.087,0.672,2.328,1.027,3.588,1.027c0.245,0,0.493-0.014,0.741-0.041c1.561-0.17,2.916-0.81,4.029-1.897l0.413-0.405
		c0.829-0.812,1.687-1.65,2.498-2.515c0.99-1.057,1.613-2.229,1.853-3.483C33.374,17.494,33.267,16.277,32.834,15.033z"/>
</g>
</svg>
