<?xml version="1.0" encoding="utf-8"?>
<!-- Generator: Adobe Illustrator 16.0.0, SVG Export Plug-In . SVG Version: 6.00 Build 0)  -->
<!DOCTYPE svg PUBLIC "-//W3C//DTD SVG 1.1//EN" "http://www.w3.org/Graphics/SVG/1.1/DTD/svg11.dtd">
<svg version="1.1" id="Layer_1" xmlns="http://www.w3.org/2000/svg" xmlns:xlink="http://www.w3.org/1999/xlink" x="0px" y="0px"
	 width="43.791px" height="43.791px" viewBox="0 0 43.791 43.791" enable-background="new 0 0 43.791 43.791" xml:space="preserve">
<rect x="0" y="0" fill="#1D1D1D" width="43.79" height="43.79"/>
<g id="Layer_10" display="none">
	<g display="inline">
		<circle fill="#1D1D1D" cx="21.896" cy="21.896" r="21.895"/>
		<path fill="#F4F4F4" d="M30.92,19.307h-6.435v-6.435c0-0.523-0.426-0.948-0.947-0.948h-3.286c-0.522,0-0.947,0.425-0.947,0.948
			v6.435h-6.434c-0.523,0-0.948,0.423-0.948,0.947v3.284c0,0.523,0.425,0.947,0.948,0.947h6.434v6.434
			c0,0.523,0.425,0.947,0.947,0.947h3.286c0.521,0,0.947-0.424,0.947-0.947v-6.434h6.435c0.522,0,0.947-0.424,0.947-0.947v-3.284
			C31.868,19.73,31.444,19.307,30.92,19.307z"/>
	</g>
</g>
<g id="Layer_9" display="none">
	<circle display="inline" fill="#1D1D1D" cx="21.895" cy="21.895" r="21.896"/>
	<g display="inline">
		<path fill="#F4F4F4" d="M32.976,21.206H17.962c-0.276,0-0.5,0.224-0.5,0.5v0.252c0,0.276,0.224,0.5,0.5,0.5h15.014
			c0.276,0,0.5-0.224,0.5-0.5v-0.252C33.476,21.43,33.252,21.206,32.976,21.206z"/>
		<path fill="#F4F4F4" d="M12.948,19.706c-1.174,0-2.125,0.952-2.125,2.126c0,1.175,0.951,2.126,2.125,2.126
			c1.176,0,2.127-0.951,2.127-2.126C15.075,20.658,14.124,19.706,12.948,19.706z M12.948,23.304c-0.814,0-1.473-0.658-1.473-1.472
			c0-0.812,0.658-1.472,1.473-1.472c0.815,0,1.473,0.659,1.473,1.472C14.42,22.646,13.762,23.304,12.948,23.304z"/>
		<path fill="#F4F4F4" d="M32.976,14.878H17.962c-0.276,0-0.5,0.224-0.5,0.5v0.252c0,0.276,0.224,0.5,0.5,0.5h15.014
			c0.276,0,0.5-0.224,0.5-0.5v-0.252C33.476,15.102,33.252,14.878,32.976,14.878z"/>
		<path fill="#F4F4F4" d="M12.948,13.378c-1.174,0-2.125,0.952-2.125,2.126c0,1.175,0.951,2.126,2.125,2.126
			c1.176,0,2.127-0.951,2.127-2.126C15.075,14.331,14.124,13.378,12.948,13.378z M12.948,16.977c-0.814,0-1.473-0.659-1.473-1.473
			c0-0.812,0.658-1.472,1.473-1.472c0.815,0,1.473,0.659,1.473,1.472C14.42,16.318,13.762,16.977,12.948,16.977z"/>
		<circle fill="#F4F4F4" cx="12.941" cy="28.286" r="2.126"/>
		<path fill="#F4F4F4" d="M32.976,27.66H17.962c-0.276,0-0.5,0.224-0.5,0.5v0.252c0,0.276,0.224,0.5,0.5,0.5h15.014
			c0.276,0,0.5-0.224,0.5-0.5V28.16C33.476,27.883,33.252,27.66,32.976,27.66z"/>
	</g>
</g>
<g id="Layer_8" display="none">
	<circle display="inline" fill="#1D1D1D" cx="21.896" cy="21.895" r="21.896"/>
	<path display="inline" fill="#F4F4F4" d="M29.392,13.773c-0.002-0.136-0.113-0.244-0.25-0.244H14.658
		c-0.136,0-0.246,0.107-0.25,0.244l-0.129,5.272c-0.001,0.067,0.024,0.133,0.071,0.181c0.047,0.048,0.111,0.075,0.179,0.075h1.426
		c0.131,0,0.239-0.101,0.249-0.229l0.117-1.503c0.068-0.785,0.295-1.341,0.674-1.654c0.387-0.319,1.039-0.481,1.938-0.481
		c0.618,0,1.053,0.106,1.259,0.308c0.142,0.139,0.31,0.482,0.31,1.322v9.667c0,0.832-0.166,1.18-0.306,1.323
		c-0.198,0.209-0.584,0.314-1.146,0.314h-1.197c-0.138,0-0.25,0.11-0.25,0.25v1.395c0,0.138,0.112,0.25,0.25,0.25h8.082
		c0.139,0,0.25-0.112,0.25-0.25v-1.395c0-0.14-0.111-0.25-0.25-0.25h-1.026c-0.834,0-1.177-0.164-1.313-0.3
		c-0.141-0.137-0.306-0.479-0.306-1.34l0.028-9.627c0-0.886,0.164-1.233,0.302-1.369c0.139-0.137,0.468-0.299,1.25-0.299
		c0.897,0,1.55,0.162,1.938,0.481c0.379,0.313,0.604,0.87,0.672,1.652l0.119,1.505c0.01,0.13,0.117,0.23,0.248,0.23h1.414
		c0.067,0,0.133-0.027,0.18-0.075c0.047-0.048,0.072-0.113,0.07-0.181L29.392,13.773z"/>
</g>
<g id="Layer_7" display="none">
	<circle display="inline" fill="#1D1D1D" cx="21.895" cy="21.895" r="21.895"/>
	<path display="inline" fill="#F4F4F4" d="M30.989,30.51c-0.008-0.126-0.016-0.251-0.016-0.376v-3.441
		c0-4.209-0.002-8.417,0.01-12.627c0.004-0.624-0.252-0.989-0.824-1.184c-1.846-0.625-3.686-1.265-5.521-1.906l-2.358-0.82
		c-0.715-0.248-1.431-0.493-2.163-0.745l-1.291-0.444c-0.053-0.019-0.108-0.027-0.163-0.027c-0.104,0-0.206,0.032-0.292,0.094
		c-0.132,0.095-0.209,0.248-0.208,0.411l0.082,8.228l0.059,5.867c-0.855-0.526-1.851-0.812-2.865-0.812
		c-0.968,0-1.911,0.26-2.727,0.748c-1.2,0.717-1.919,1.893-1.922,3.146c-0.003,1.255,0.68,2.388,1.874,3.108
		c0.899,0.543,1.835,0.818,2.783,0.818c0.889,0,1.785-0.242,2.662-0.723c1.37-0.749,2.058-1.926,2.047-3.499
		c-0.02-3.222-0.017-6.446-0.015-9.669l0.001-2.741l1.655,0.578c2.464,0.86,4.929,1.72,7.396,2.572
		c0.019,0.006,0.031,0.012,0.043,0.017c0.002,0.016,0.002,0.038,0.002,0.068c-0.01,2.347-0.01,4.696-0.008,7.043v2.113v1.615
		c-0.871-0.554-1.879-0.852-2.922-0.852c-1.127,0-2.219,0.342-3.07,0.963c-0.981,0.712-1.562,1.744-1.59,2.83
		c-0.03,1.098,0.476,2.126,1.424,2.896c0.863,0.702,2.023,1.089,3.265,1.089c1.207,0,2.341-0.369,3.19-1.041
		c0.904-0.717,1.399-1.604,1.473-2.636C31.013,30.944,31,30.724,30.989,30.51z M15.607,23.243c-0.125-0.005-0.25-0.008-0.374-0.001
		c0.068-0.003,0.136-0.015,0.204-0.015C15.494,23.228,15.55,23.241,15.607,23.243z M17.888,23.878
		c-0.077-0.044-0.159-0.075-0.238-0.115C17.729,23.803,17.811,23.834,17.888,23.878z M17.16,23.543
		c-0.098-0.036-0.197-0.062-0.297-0.092C16.962,23.481,17.062,23.507,17.16,23.543z M16.395,23.331
		c-0.107-0.021-0.215-0.035-0.323-0.049C16.181,23.295,16.288,23.31,16.395,23.331z M13.602,23.59
		c-0.218,0.089-0.431,0.191-0.635,0.313C13.171,23.782,13.384,23.679,13.602,23.59z M14.958,23.259
		c-0.144,0.014-0.286,0.037-0.429,0.063C14.672,23.296,14.814,23.272,14.958,23.259z M14.269,23.375
		c-0.152,0.037-0.302,0.087-0.45,0.14C13.967,23.462,14.117,23.413,14.269,23.375z M13.536,29.625
		c0.076,0.034,0.153,0.058,0.229,0.086C13.688,29.683,13.612,29.66,13.536,29.625z M14.156,29.856
		c0.095,0.028,0.19,0.043,0.286,0.065C14.347,29.899,14.251,29.885,14.156,29.856z M14.781,29.997
		c0.102,0.016,0.205,0.02,0.307,0.025C14.986,30.015,14.883,30.012,14.781,29.997z M15.409,30.046
		c0.129,0.001,0.259-0.011,0.389-0.021c-0.118,0.011-0.236,0.024-0.354,0.024C15.433,30.049,15.421,30.046,15.409,30.046z
		 M17.254,29.679c0.205-0.083,0.409-0.18,0.612-0.291C17.663,29.5,17.459,29.596,17.254,29.679z M16.023,30.009
		c0.135-0.018,0.271-0.049,0.406-0.078C16.294,29.96,16.159,29.992,16.023,30.009z M16.639,29.887
		c0.145-0.038,0.289-0.093,0.433-0.146C16.928,29.794,16.784,29.849,16.639,29.887z M28.953,28.343
		c-0.093-0.058-0.188-0.096-0.282-0.146C28.765,28.248,28.86,28.285,28.953,28.343z M28.125,27.922
		c-0.115-0.045-0.233-0.071-0.349-0.106C27.892,27.851,28.009,27.877,28.125,27.922z M27.267,27.672
		c-0.125-0.024-0.248-0.032-0.373-0.047C27.019,27.64,27.142,27.647,27.267,27.672z M26.403,27.582
		c-0.151-0.003-0.303,0.008-0.452,0.019c0.118-0.009,0.233-0.026,0.354-0.026C26.338,27.573,26.372,27.581,26.403,27.582z
		 M24.158,28.063c-0.224,0.109-0.435,0.234-0.63,0.377C23.724,28.298,23.935,28.173,24.158,28.063z M25.62,27.625
		c-0.158,0.021-0.312,0.06-0.465,0.096C25.31,27.685,25.46,27.647,25.62,27.625z M24.862,27.79c-0.166,0.05-0.323,0.117-0.479,0.184
		C24.54,27.907,24.696,27.839,24.862,27.79z M24.026,33.798c0.089,0.046,0.186,0.076,0.275,0.117
		C24.211,33.875,24.115,33.844,24.026,33.798z M24.746,34.103c0.112,0.037,0.231,0.056,0.349,0.084
		C24.978,34.158,24.858,34.14,24.746,34.103z M25.515,34.286c0.127,0.02,0.254,0.021,0.383,0.031
		C25.769,34.308,25.642,34.306,25.515,34.286z M26.31,34.349c0.164,0.002,0.325-0.019,0.487-0.031
		c-0.153,0.014-0.31,0.033-0.464,0.033C26.326,34.351,26.317,34.349,26.31,34.349z M28.573,33.828
		c0.228-0.117,0.441-0.254,0.642-0.411C29.015,33.574,28.8,33.71,28.573,33.828z M27.097,34.294
		c0.164-0.023,0.324-0.068,0.485-0.109C27.421,34.226,27.261,34.271,27.097,34.294z M27.858,34.121
		c0.166-0.054,0.322-0.126,0.479-0.195C28.181,33.995,28.024,34.067,27.858,34.121z"/>
</g>
<g id="Layer_6" display="none">
	<circle display="inline" fill="#1D1D1D" cx="21.895" cy="21.896" r="21.895"/>
	<g display="inline">
		<path fill="#F4F4F4" d="M17.403,15.78h-6.74c-0.276,0-0.5,0.224-0.5,0.5v1.747H8.417c-0.276,0-0.5,0.224-0.5,0.5v6.738
			c0,0.276,0.224,0.5,0.5,0.5h1.746v1.748c0,0.276,0.224,0.5,0.5,0.5h6.74c0.276,0,0.5-0.224,0.5-0.5v-6.74
			c0-0.276-0.224-0.5-0.5-0.5H12.91c-0.276,0-0.5,0.224-0.5,0.5v2.246c0,0.276,0.224,0.5,0.5,0.5h1.747v1.246h-3.494v-5.738h6.24
			c0.276,0,0.5-0.224,0.5-0.5V16.28C17.903,16.003,17.679,15.78,17.403,15.78z"/>
		<path fill="#F4F4F4" d="M35.374,15.78h-6.738c-0.275,0-0.5,0.224-0.5,0.5v11.231c0,0.276,0.225,0.5,0.5,0.5h2.246
			c0.276,0,0.5-0.224,0.5-0.5v-3.993h1.746c0.275,0,0.5-0.225,0.5-0.5v-2.247c0-0.276-0.225-0.5-0.5-0.5h-1.746v-1.246h3.992
			c0.275,0,0.5-0.224,0.5-0.5V16.28C35.874,16.003,35.649,15.78,35.374,15.78z"/>
		<path fill="#F4F4F4" d="M26.388,15.78h-6.739c-0.276,0-0.5,0.224-0.5,0.5v2.247c0,0.276,0.224,0.5,0.5,0.5h1.746v5.738h-1.746
			c-0.276,0-0.5,0.225-0.5,0.5v2.248c0,0.276,0.224,0.5,0.5,0.5h6.739c0.275,0,0.5-0.224,0.5-0.5v-2.248c0-0.275-0.225-0.5-0.5-0.5
			h-1.746v-5.738h1.746c0.275,0,0.5-0.224,0.5-0.5V16.28C26.888,16.003,26.664,15.78,26.388,15.78z"/>
	</g>
</g>
<g id="Layer_5" display="none">
	<circle display="inline" fill="#1D1D1D" cx="21.896" cy="21.894" r="21.895"/>
	<g display="inline">
		<path fill="#F4F4F4" d="M16.935,23.978h-5.414c-0.276,0-0.5,0.225-0.5,0.5v5.166c0,0.276,0.224,0.5,0.5,0.5h5.414
			c0.276,0,0.5-0.224,0.5-0.5v-5.166C17.435,24.202,17.211,23.978,16.935,23.978z"/>
		<path fill="#F4F4F4" d="M24.601,19.312h-5.414c-0.276,0-0.5,0.224-0.5,0.5v9.832c0,0.276,0.224,0.5,0.5,0.5h5.414
			c0.276,0,0.5-0.224,0.5-0.5v-9.832C25.101,19.536,24.877,19.312,24.601,19.312z"/>
		<path fill="#F4F4F4" d="M32.269,13.645h-5.416c-0.275,0-0.5,0.224-0.5,0.5v15.499c0,0.276,0.225,0.5,0.5,0.5h5.416
			c0.276,0,0.5-0.224,0.5-0.5V14.145C32.769,13.869,32.545,13.645,32.269,13.645z"/>
	</g>
</g>
<g id="Layer_4" display="none">
	<circle display="inline" fill="#1D1D1D" cx="21.895" cy="21.895" r="21.896"/>
	<g display="inline">
		<path fill="#F4F4F4" d="M31.481,10.509H12.308c-0.993,0-1.799,0.805-1.799,1.799v19.175c0,0.992,0.806,1.799,1.799,1.799h19.173
			c0.994,0,1.799-0.807,1.799-1.799V12.308C33.28,11.314,32.476,10.509,31.481,10.509z M30.99,29.192c0,0.992-0.806,1.799-1.8,1.799
			H14.599c-0.994,0-1.799-0.807-1.799-1.799V14.6c0-0.994,0.805-1.799,1.799-1.799H29.19c0.994,0,1.8,0.805,1.8,1.799V29.192z"/>
		<circle fill="#F4F4F4" cx="16.89" cy="17.556" r="2.126"/>
		<path fill="#F4F4F4" d="M29.188,19.943c-0.183-0.078-0.396-0.042-0.541,0.095l-6.785,6.378l-3.77-2.89
			c-0.113-0.086-0.258-0.12-0.398-0.094c-0.14,0.025-0.262,0.111-0.335,0.234l-2.963,4.945c-0.093,0.154-0.095,0.348-0.006,0.504
			c0.089,0.156,0.255,0.254,0.435,0.254H28.99c0.276,0,0.5-0.225,0.5-0.5v-8.469C29.49,20.203,29.372,20.022,29.188,19.943z"/>
	</g>
</g>
<g id="Layer_3" display="none">
	<circle display="inline" fill="#1D1D1D" cx="21.895" cy="21.895" r="21.895"/>
	<path display="inline" fill="#F4F4F4" d="M21.895,10.136c-4.481,0-8.127,3.646-8.127,8.127c0,0.097,0.002,0.196,0.007,0.293
		c0.03,0.842,0.188,1.663,0.458,2.418c1.637,5.378,7.042,12.203,7.271,12.491c0.095,0.119,0.238,0.188,0.391,0.188
		s0.297-0.069,0.392-0.188c0.229-0.288,5.633-7.112,7.263-12.469c0.28-0.787,0.438-1.608,0.465-2.427
		c0.006-0.104,0.008-0.206,0.008-0.307C30.022,13.782,26.376,10.136,21.895,10.136z M21.895,15.028c1.784,0,3.236,1.451,3.236,3.235
		c0,1.783-1.452,3.234-3.236,3.234c-1.784,0-3.236-1.451-3.236-3.234C18.659,16.479,20.111,15.028,21.895,15.028z"/>
</g>
<g id="Layer_2" display="none">
	<circle display="inline" fill="#1D1D1D" cx="21.895" cy="21.896" r="21.896"/>
	<path display="inline" fill="#F4F4F4" d="M33.33,16.321c-0.291-1.255-1.32-2.18-2.562-2.317c-2.938-0.327-5.91-0.531-8.871-0.529
		c-2.959-0.002-5.932,0.202-8.867,0.529c-1.24,0.138-2.271,1.062-2.561,2.317c-0.412,1.786-0.418,3.735-0.418,5.574
		c0,1.84,0,3.79,0.412,5.575c0.291,1.254,1.32,2.18,2.561,2.316c2.938,0.328,5.91,0.531,8.869,0.529
		c2.958,0.002,5.932-0.201,8.869-0.529c1.24-0.137,2.271-1.062,2.562-2.316c0.411-1.785,0.416-3.734,0.416-5.575
		C33.74,20.057,33.742,18.107,33.33,16.321z M25.933,22.44l-5.582,3.02c-0.555,0.301-1.01,0.029-1.01-0.602v-5.926
		c0-0.631,0.455-0.902,1.01-0.602l5.582,3.02C26.49,21.649,26.49,22.142,25.933,22.44z"/>
</g>
<g>
	<path fill="#F4F4F4" d="M25.751,27.188c-0.048-0.058-0.141-0.088-0.218-0.088c-0.023,0-0.087,0.01-0.108,0.016
		c-1.257,0.314-2.521,0.299-3.76-0.049c-0.252-0.072-0.425,0.047-0.515,0.139c-0.293,0.298-0.589,0.592-0.884,0.887l-0.763,0.764
		c-0.816,0.793-1.774,1.099-2.852,0.9c-1.265-0.229-2.107-0.957-2.504-2.162c-0.4-1.217-0.157-2.304,0.722-3.229
		c0.918-0.961,1.93-1.974,3.186-3.189c0.567-0.55,1.318-0.866,2.114-0.891l0.101-0.001c1.27,0,2.39,0.707,2.924,1.847
		c0.082,0.172,0.142,0.354,0.203,0.542c0.033,0.103,0.067,0.205,0.105,0.31c0.039,0.107,0.152,0.183,0.26,0.164
		c0.67-0.063,1.254-0.334,1.734-0.805c0.135-0.131,0.268-0.265,0.4-0.399c0.152-0.154,0.307-0.309,0.465-0.462
		c0.207-0.204,0.121-0.417,0.094-0.488c-0.408-0.985-1.068-1.879-1.913-2.585c-1.472-1.23-3.406-1.8-5.272-1.544
		c-1.51,0.207-2.815,0.842-3.88,1.889l-0.334,0.33c-0.857,0.843-1.743,1.714-2.587,2.599c-1.613,1.688-2.227,3.707-1.823,6
		c0.574,3.233,3.389,5.58,6.693,5.58c0.218,0,0.438-0.01,0.658-0.031c0.78-0.073,1.523-0.281,2.271-0.637
		c0.511-0.242,0.946-0.51,1.331-0.815c0.191-0.15,0.387-0.325,0.597-0.534c0.928-0.919,1.853-1.84,2.77-2.771
		c0.193-0.197,0.373-0.408,0.552-0.621c0.086-0.101,0.172-0.201,0.258-0.301c0.076-0.085,0.084-0.21,0.021-0.304
		C25.792,27.239,25.756,27.194,25.751,27.188z"/>
	<path fill="#F4F4F4" d="M32.834,15.033c-0.931-2.694-3.497-4.504-6.388-4.504c-0.358,0-0.721,0.029-1.074,0.087
		c-1.451,0.237-2.706,0.872-3.732,1.884c-0.962,0.955-1.921,1.914-2.875,2.88c-0.166,0.168-0.316,0.351-0.465,0.535l-0.191,0.232
		c-0.029,0.035-0.053,0.073-0.108,0.161c-0.049,0.074-0.055,0.169-0.016,0.249c0.039,0.08,0.118,0.133,0.207,0.139l0.045-0.231
		l0.02,0.236c0.021,0,0.051-0.004,0.071-0.009c1.262-0.33,2.546-0.312,3.817,0.049c0.248,0.072,0.418-0.079,0.461-0.123l0.487-0.493
		c0.405-0.411,0.812-0.82,1.228-1.219c0.826-0.79,1.802-1.077,2.89-0.853c1.261,0.264,2.084,1.014,2.448,2.229
		c0.229,0.768,0.182,1.512-0.137,2.212c-0.186,0.405-0.397,0.724-0.668,1.003c-0.805,0.822-1.619,1.631-2.436,2.44l-0.636,0.631
		c-0.612,0.611-1.425,0.949-2.283,0.949c-0.962,0-1.869-0.428-2.487-1.171c-0.276-0.333-0.477-0.739-0.612-1.239
		c-0.033-0.121-0.148-0.202-0.274-0.182c-0.124,0.016-0.217,0.122-0.217,0.248v4.573c0,0.087,0.045,0.167,0.119,0.213
		c1.087,0.672,2.328,1.027,3.588,1.027c0.245,0,0.493-0.014,0.741-0.041c1.561-0.17,2.916-0.81,4.029-1.897l0.413-0.405
		c0.829-0.812,1.687-1.65,2.498-2.515c0.99-1.057,1.613-2.229,1.853-3.483C33.374,17.494,33.267,16.277,32.834,15.033z"/>
</g>
<g id="Layer_1_1_" display="none">
	<circle display="inline" fill="#1D1D1D" cx="21.896" cy="21.894" r="21.895"/>
	<path display="inline" fill="#F4F4F4" d="M33.562,16.279c-0.785,0.349-1.629,0.584-2.515,0.688
		c0.903-0.541,1.599-1.399,1.925-2.422c-0.846,0.502-1.783,0.866-2.779,1.062c-0.799-0.85-1.937-1.382-3.193-1.382
		c-2.417,0-4.377,1.96-4.377,4.376c0,0.343,0.039,0.678,0.113,0.998c-3.636-0.184-6.861-1.926-9.021-4.572
		c-0.377,0.646-0.593,1.397-0.593,2.199c0,1.519,0.772,2.857,1.947,3.643c-0.718-0.022-1.393-0.22-1.983-0.547
		c0,0.018,0,0.036,0,0.055c0,2.12,1.51,3.889,3.511,4.291c-0.366,0.1-0.754,0.153-1.152,0.153c-0.282,0-0.556-0.027-0.823-0.079
		c0.557,1.738,2.173,3.004,4.086,3.04c-1.496,1.173-3.383,1.873-5.434,1.873c-0.352,0-0.702-0.021-1.044-0.062
		c1.937,1.242,4.237,1.968,6.708,1.968c8.049,0,12.452-6.668,12.452-12.452c0-0.189-0.005-0.379-0.013-0.566
		C32.231,17.927,32.976,17.156,33.562,16.279z"/>
</g>
</svg>
