<?xml version="1.0" encoding="utf-8"?>
<!-- Generator: Adobe Illustrator 16.0.0, SVG Export Plug-In . SVG Version: 6.00 Build 0)  -->
<!DOCTYPE svg PUBLIC "-//W3C//DTD SVG 1.1//EN" "http://www.w3.org/Graphics/SVG/1.1/DTD/svg11.dtd">
<svg version="1.1" id="Layer_1" xmlns="http://www.w3.org/2000/svg" xmlns:xlink="http://www.w3.org/1999/xlink" x="0px" y="0px"
	 width="60px" height="60px" viewBox="0 0 60 60" enable-background="new 0 0 60 60" xml:space="preserve">
<g display="none">
	<path display="inline" fill="#F6F7F8" d="M30.001,60C13.458,60,0,46.541,0,30C0,13.458,13.458,0,30.001,0C46.541,0,60,13.458,60,30
		C60,46.541,46.541,60,30.001,60z M30.001,3.659C15.476,3.659,3.659,15.475,3.659,30c0,14.525,11.816,26.341,26.342,26.341
		c14.524,0,26.34-11.816,26.34-26.341C56.341,15.475,44.525,3.659,30.001,3.659z"/>
	<g display="inline">
		<g>
			<path fill="#F6F7F8" d="M28.244,31.203c-0.639-0.856-0.845-1.423-0.057-2.37c1.511-1.814,2.831-3.785,4.228-5.695
				c1.775-2.433,3.549-4.869,5.533-7.597c-3.564,0-6.782-0.025-9.999,0.036c-0.355,0.007-0.781,0.45-1.035,0.793
				c-3.125,4.211-6.208,8.454-9.344,12.658c-0.568,0.762-0.508,1.284,0.05,2.027"/>
			<path fill-rule="evenodd" clip-rule="evenodd" fill="#F6F7F8" d="M17.62,31.055c-0.558-0.744-0.618-1.266-0.05-2.027
				c3.136-4.204,6.219-8.446,9.344-12.658c0.254-0.343,0.68-0.786,1.035-0.793c3.217-0.062,6.435-0.036,9.999-0.036
				c-1.984,2.729-3.758,5.164-5.533,7.597c-1.396,1.91-2.717,3.881-4.228,5.695c-0.788,0.947-0.582,1.514,0.057,2.37"/>
		</g>
		<path fill="#F6F7F8" d="M17.62,28.945c-0.558,0.744-0.618,1.265-0.05,2.027c3.136,4.205,6.219,8.446,9.344,12.657
			c0.254,0.343,0.68,0.787,1.035,0.794c3.217,0.062,6.435,0.036,9.999,0.036c-1.984-2.729-3.758-5.164-5.533-7.598
			c-1.396-1.909-2.717-3.882-4.228-5.694c-0.788-0.949-0.582-1.516,0.057-2.37"/>
	</g>
</g>
<g>
	<g>
		<path fill="#F6F7F8" d="M31.053,22.501c-0.743-0.559-1.265-0.621-2.026-0.053c-4.204,3.137-8.446,6.22-12.658,9.344
			c-0.342,0.254-0.785,0.681-0.793,1.034c-0.062,3.217-0.035,6.434-0.035,10.002c2.729-1.988,5.162-3.759,7.596-5.534
			c1.911-1.395,3.883-2.717,5.696-4.228c0.948-0.79,1.515-0.581,2.368,0.056"/>
		<path fill-rule="evenodd" clip-rule="evenodd" fill="#F6F7F8" d="M31.053,22.501c-0.743-0.559-1.265-0.621-2.026-0.053
			c-4.204,3.137-8.446,6.22-12.658,9.344c-0.342,0.254-0.785,0.681-0.793,1.034c-0.062,3.217-0.035,6.434-0.035,10.002
			c2.729-1.988,5.162-3.759,7.596-5.534c1.911-1.395,3.883-2.717,5.696-4.228c0.948-0.79,1.515-0.581,2.368,0.056"/>
	</g>
	<path fill="#F6F7F8" d="M28.798,33.123c0.854-0.637,1.42-0.846,2.368-0.056c1.813,1.511,3.786,2.833,5.696,4.228
		c2.433,1.775,4.867,3.546,7.597,5.534c0-3.568,0.025-6.785-0.037-10.002c-0.006-0.354-0.449-0.78-0.793-1.034
		c-4.211-3.125-8.453-6.208-12.657-9.344c-0.762-0.568-1.284-0.506-2.026,0.053"/>
</g>
<g display="none">
	<path display="inline" fill="#F6F7F8" d="M30,60C13.459,60,0,46.543,0,30C0,13.457,13.459,0,30,0c16.543,0,30,13.458,30,30
		C60,46.543,46.543,60,30,60z M30,3.658C15.476,3.658,3.659,15.475,3.659,30c0,14.526,11.816,26.342,26.341,26.342
		c14.525,0,26.342-11.816,26.342-26.342C56.342,15.475,44.525,3.658,30,3.658z"/>
	<path display="inline" fill="#F6F7F8" d="M44.71,26.031H26.67c0.221-0.305,0.443-0.604,0.661-0.909
		c0.473-0.665,0.945-1.327,1.426-1.985c1.775-2.432,3.547-4.866,5.533-7.596c-3.565,0-6.784-0.026-10,0.036
		c-0.354,0.007-0.778,0.45-1.033,0.793c-2.161,2.911-4.306,5.834-6.458,8.752c-0.94,1.276-1.879,2.554-2.827,3.825h-0.01
		c-0.021,0.026-0.028,0.05-0.047,0.076c-0.001,0-0.002,0.003-0.004,0.005c-0.004,0.005-0.005,0.01-0.009,0.015
		c-0.124,0.169-0.213,0.326-0.276,0.477c-0.031,0.073-0.039,0.147-0.057,0.219c-0.021,0.088-0.047,0.176-0.047,0.262
		s0.026,0.174,0.047,0.263c0.018,0.073,0.025,0.145,0.057,0.221c0.063,0.15,0.152,0.306,0.276,0.475
		c0.004,0.007,0.005,0.01,0.009,0.017c0.002,0,0.003,0.002,0.004,0.005c0.019,0.027,0.026,0.048,0.047,0.076h0.01
		c0.947,1.27,1.886,2.547,2.827,3.824c2.15,2.918,4.297,5.838,6.458,8.752c0.255,0.342,0.68,0.785,1.033,0.793
		c3.216,0.062,6.435,0.035,10,0.035c-1.986-2.727-3.758-5.162-5.533-7.596c-0.48-0.658-0.953-1.322-1.426-1.984
		c-0.218-0.305-0.442-0.607-0.661-0.91h18.04V26.031z"/>
</g>
</svg>
